<?xml version="1.0" encoding="utf-8"?>
<!-- Generator: Adobe Illustrator 21.1.0, SVG Export Plug-In . SVG Version: 6.00 Build 0)  -->
<svg version="1.1" id="Capa_1" xmlns="http://www.w3.org/2000/svg" xmlns:xlink="http://www.w3.org/1999/xlink" x="0px" y="0px"
	 viewBox="0 0 500 500" style="enable-background:new 0 0 500 500;" xml:space="preserve">
<style type="text/css">
	.st0{fill:#FEFEFE;}
	.st1{fill:#0A0A0A;}
	.st2{fill:#AB0309;}
	.st3{fill:#008906;}
	.st4{fill:#575757;}
	.st5{fill:#0C0C0C;}
	.st6{fill:#848484;}
	.st7{fill:#141414;}
	.st8{fill:#BDBDBD;}
	.st9{fill:#1A1A1A;}
	.st10{fill:#070707;}
	.st11{fill:#2E2E2E;}
	.st12{fill:#FCFCFC;}
	.st13{fill:#FBFBFB;}
	.st14{fill:#838383;}
</style>
<g>
	<g>
		<path class="st0" d="M250.2,48.1c82.3,0,164.6,0,247,0c0.9,0,1.1,0.2,1.1,1.1c0,134.2,0,268.5,0,402.7c0,0.9-0.2,1.1-1.1,1.1
			c-164.6,0-329.3,0-493.9,0c-0.9,0-1.1-0.2-1.1-1.1c0-134.2,0-268.5,0-402.7c0-0.9,0.2-1.1,1.1-1.1
			C85.6,48.1,167.9,48.1,250.2,48.1z M238.2,405.7c88.9,0,161.1-72.1,161.1-160.9c0.1-89.1-72-161.4-160.9-161.5
			c-89.2,0-161.4,72-161.4,161C77,333.5,149.1,405.7,238.2,405.7z"/>
		<path class="st1" d="M238.2,405.7C149.1,405.7,77,333.5,77,244.4c0-89,72.3-161.1,161.4-161c88.9,0,161,72.3,160.9,161.5
			C399.3,333.6,327.1,405.7,238.2,405.7z M158,106.1c-0.4,0.2-0.7,0.3-1.1,0.5c-9.1,5.5-17.7,11.7-25.6,18.8
			c-3.5,3.2-6.9,6.5-10.1,10c-3.7,4-7.2,8.2-10.5,12.5c-2.2,2.9-4.4,5.8-6.2,9c-0.8,0.6-1.1,1.5-1.6,2.3c-0.2,0.2,0,0.4,0.2,0.3
			c-0.1,1.1-0.9,1.8-1.3,2.8c-1.5,3.1-3.1,6.1-4.7,9.2c-0.3,0.5-0.5,0.8-1,0.3c0-0.2,0.4-0.4,0.1-0.5c-0.1-0.1-0.3,0.3-0.3,0.5
			c-0.7,0.9-1,2-1.5,3c-3.3,6.8-6.1,13.9-8.4,21.2c-2.7,8.7-4.7,17.5-6,26.5c-0.8,6-1.4,12-1.4,18.1c-0.2,0.2-0.2,0.5-0.2,0.8
			c0.1,2.4-0.3,4.8,0.2,7.2c0,4,0.3,8,0.7,11.9c0.5,5,1.2,9.9,2.2,14.8c2.7,14.1,7.3,27.6,13.7,40.5c3.7,7.4,7.9,14.5,12.7,21.2
			c5.3,7.4,11,14.3,17.4,20.7c1.7,1.7,3.5,3.4,5.3,5c2.5,2.3,5,4.6,7.7,6.6c5.1,4.1,10.4,7.9,16,11.3c2.3,1.4,4.5,2.9,6.9,3.9
			c1.7,1.3,3.7,2.1,5.6,3.1c3.2,1.7,6.5,3.2,9.9,4.5c5.4,2.2,10.9,4.2,16.5,5.9c8.5,2.6,17.2,4.3,26,5.4c3.8,0.5,7.6,0.9,11.4,0.9
			c7,0.1,14.1,0.3,21.1-0.4c3.6-0.4,7.2-0.7,10.7-1.2c3.7-0.5,7.5-1.2,11.1-2c5.9-1.4,11.7-2.9,17.4-5c6.3-2.2,12.4-4.8,18.4-7.7
			c1-0.3,1.9-0.9,2.8-1.4c6.6-3.4,12.8-7.2,18.8-11.5c6.3-4.4,12.1-9.3,17.7-14.5c2.4-2.3,4.7-4.7,7-7.1c3.9-4.3,7.6-8.7,11.1-13.3
			c6.1-8.1,11.4-16.8,15.8-26c3.4-7,6.2-14.1,8.5-21.5c1.9-6.1,3.5-12.4,4.7-18.7c0.7-3.8,1.3-7.7,1.7-11.6c0.5-4.7,1-9.3,0.9-14
			c-0.1-4.5,0.2-9.1-0.2-13.6c-0.2-2.5-0.3-5.1-0.6-7.6c-0.4-3.9-1-7.8-1.7-11.6c-1.4-7.4-3.2-14.8-5.6-22
			c-2.8-8.3-6.2-16.3-10.3-24.1c-2.1-3.9-4.3-7.7-6.7-11.5c-2.8-4.4-5.9-8.6-9.1-12.7c-3.6-4.6-7.5-9-11.6-13.2
			c-2.6-2.7-5.4-5.2-8.2-7.7c-2.6-2.3-5.2-4.5-7.9-6.6c-5.2-4-10.6-7.8-16.2-11.1c-4.1-2.4-8.3-4.8-12.7-6.7
			c-1.1-0.7-2.3-1.2-3.5-1.7c-4.8-2.2-9.6-4.1-14.6-5.7c-4-1.4-8.1-2.6-12.2-3.6c-4.2-1-8.5-1.9-12.7-2.6c-2.7-0.5-5.4-0.7-8.1-1.1
			c-3.4-0.4-6.7-0.8-10.1-0.8c-5.8-0.1-11.6-0.3-17.3,0.1c-2.9,0.2-5.7,0.4-8.6,0.7c-4.2,0.4-8.4,1.1-12.6,1.9
			c-6.6,1.2-13.1,3-19.5,5c-5.4,1.7-10.6,3.8-15.7,6.1C167.6,100.8,162.7,103.3,158,106.1z M96.7,170.4
			C96.6,170.3,96.6,170.3,96.7,170.4c-0.1-0.1-0.1,0-0.1,0C96.5,170.4,96.6,170.4,96.7,170.4C96.6,170.4,96.6,170.4,96.7,170.4z
			 M96.8,170C96.9,169.9,96.9,169.9,96.8,170c0.1-0.1,0-0.1,0-0.1C96.8,169.8,96.8,169.9,96.8,170C96.8,169.9,96.8,169.9,96.8,170z
			 M96.4,170.8C96.3,170.8,96.3,170.8,96.4,170.8c-0.1,0.1,0,0.1,0,0.1C96.4,170.9,96.4,170.9,96.4,170.8
			C96.4,170.8,96.4,170.8,96.4,170.8z"/>
		<path class="st2" d="M307.6,100.2c4.4,1.8,8.6,4.3,12.7,6.7c5.7,3.3,11,7.1,16.2,11.1c2.7,2.1,5.4,4.3,7.9,6.6
			c2.8,2.5,5.6,5,8.2,7.7c4.1,4.2,8,8.6,11.6,13.2c3.2,4.1,6.3,8.3,9.1,12.7c2.4,3.7,4.6,7.6,6.7,11.5c4.1,7.7,7.5,15.8,10.3,24.1
			c2.4,7.2,4.2,14.5,5.6,22c0.7,3.8,1.3,7.7,1.7,11.6c0.3,2.5,0.4,5.1,0.6,7.6c0.3,4.6,0.1,9.1,0.2,13.6c0.1,4.7-0.4,9.3-0.9,14
			c-0.4,3.9-1,7.7-1.7,11.6c-1.2,6.3-2.7,12.6-4.7,18.7c-2.3,7.4-5.2,14.5-8.5,21.5c-4.4,9.2-9.7,17.8-15.8,26
			c-3.5,4.6-7.2,9.1-11.1,13.3c-2.2,2.4-4.5,4.8-7,7.1c-5.6,5.2-11.5,10.1-17.7,14.5c-6,4.2-12.3,8.1-18.8,11.5
			c-0.9,0.5-1.8,1.1-2.8,1.4c0-1.7,0-3.3,0-5c2.6-1.5,5.3-2.9,7.9-4.4c5.6-3.4,11.1-7,16.3-11.1c4.8-3.7,9.4-7.7,13.7-11.9
			c1.7-1.6,3.3-3.4,4.9-5.1c3.5-3.7,6.8-7.6,9.9-11.6c5.6-7.2,10.4-14.9,14.7-23c1.8-3.5,3.5-7.1,5-10.7c2.8-6.5,5.1-13.2,7-20.1
			c2.2-8.2,3.8-16.5,4.6-24.9c0.5-4.6,0.6-9.2,0.9-13.8c0.2-4-0.2-8-0.4-11.9c-0.2-4-0.7-8-1.2-12.1c-0.6-4.3-1.4-8.6-2.3-12.8
			c-2.1-9.1-5-17.9-8.6-26.5c-3.3-7.7-7.1-15-11.6-22.1c-4-6.3-8.4-12.4-13.4-18c-3.7-4.2-7.6-8.4-11.7-12.2
			c-4.4-4.1-9-7.9-13.8-11.5c-4.7-3.5-9.5-6.7-14.6-9.6c-2.8-1.6-5.7-3.2-8.5-4.7C308,103.5,307.7,101.9,307.6,100.2z"/>
		<path class="st3" d="M78.5,240.5c0.1-6.1,0.6-12.1,1.4-18.1c1.2-9,3.2-17.8,6-26.5c2.3-7.3,5.1-14.3,8.4-21.2c0.5-1,0.8-2.1,1.5-3
			c0,0,0.1,0,0.1,0l0.1,0c0.5,0.5,0.8,0.2,1-0.3c1.6-3.1,3.2-6.1,4.7-9.2c0.5-0.9,1.2-1.7,1.3-2.8c0.6-0.8,1.2-1.6,1.4-2.6
			c1.8-3.2,4-6.1,6.2-9c3.3-4.4,6.8-8.5,10.5-12.5c3.2-3.5,6.6-6.8,10.1-10c7.9-7.1,16.4-13.4,25.6-18.8c0.3-0.2,0.7-0.4,1.1-0.5
			c-0.4,1.7,0,3.2,1.4,4.3c-3.8,2.4-7.6,4.8-11.3,7.4c-6.1,4.3-11.9,9.2-17.3,14.3c-3.7,3.5-7.2,7.3-10.5,11.1
			c-3.3,3.8-6.4,7.7-9.2,11.8c-5.3,7.6-10,15.5-13.8,23.9c-2,4.4-3.9,8.9-5.5,13.4c-2.4,6.7-4.3,13.5-5.7,20.5
			c-1,5.2-1.8,10.3-2.4,15.6c-0.5,4.5-0.6,8.9-0.9,13.4c-0.2,4.1,0.2,8.3,0.4,12.4c0.2,3.5,0.6,6.9,1,10.4
			c0.7,5.3,1.7,10.6,2.9,15.9c2.6,11,6.4,21.6,11.4,31.8c3.8,7.8,8.3,15.3,13.3,22.4c4.4,6.2,9.3,12,14.6,17.6
			c3.4,3.6,7.1,7,10.9,10.2c3.8,3.3,7.8,6.4,11.9,9.3c3.8,2.7,7.9,5.2,11.9,7.6c0,1.7,0,3.3,0,5c-2.4-1.1-4.6-2.6-6.9-3.9
			c-5.6-3.4-10.9-7.3-16-11.3c-2.7-2.1-5.1-4.4-7.7-6.6c-1.8-1.6-3.6-3.3-5.3-5c-6.4-6.4-12.2-13.3-17.4-20.7
			c-4.8-6.7-9-13.8-12.7-21.2c-6.4-12.9-11-26.3-13.7-40.5c-0.9-4.9-1.7-9.9-2.2-14.8c-0.4-4-0.7-7.9-0.7-11.9
			C78.5,245.9,78.5,243.2,78.5,240.5z"/>
		<path class="st0" d="M159.4,110.5c-1.4-1.1-1.8-2.6-1.4-4.3c4.7-2.8,9.6-5.3,14.6-7.6c5.1-2.3,10.4-4.4,15.7-6.1
			c6.4-2.1,12.9-3.8,19.5-5c4.2-0.8,8.4-1.5,12.6-1.9c2.9-0.3,5.7-0.5,8.6-0.7c5.8-0.4,11.6-0.2,17.3-0.1c3.4,0.1,6.7,0.4,10.1,0.8
			c2.7,0.3,5.5,0.6,8.1,1.1c4.3,0.7,8.5,1.6,12.7,2.6c4.1,1,8.2,2.2,12.2,3.6c5,1.7,9.8,3.5,14.6,5.7c1.2,0.5,2.4,1,3.5,1.7
			c0.1,1.7,0.4,3.3,0.3,5c-2.3-1-4.5-2.1-6.8-3.1c-5.9-2.5-11.8-4.7-18-6.6c-7.5-2.2-15-3.9-22.8-5c-4.4-0.6-8.9-1.1-13.3-1.3
			c-3.6-0.2-7.1-0.4-10.7-0.3c-1.2,0-2.3,0.3-3.5,0.3c-1.4,0-2.8,0.1-4.3,0.2c-3.5,0.2-7,0.6-10.4,1c-2.8,0.4-5.6,0.7-8.3,1.2
			c-4.6,1-9.1,2-13.6,3.3c-8.5,2.4-16.8,5.6-24.8,9.3C167.2,106.1,163.3,108.3,159.4,110.5z"/>
		<path class="st0" d="M161,384.6c0-1.7,0-3.3,0-5c4,2.1,7.9,4.3,12.1,6.2c3.6,1.6,7.2,3.2,10.9,4.5c8.7,3.2,17.6,5.7,26.8,7.3
			c5.1,0.9,10.3,1.6,15.4,2.1c3.7,0.4,7.5,0.4,11.3,0.5c2.1,0.1,4.1-0.1,6.2-0.2c3.6-0.1,7.2-0.4,10.7-0.7c4-0.4,8-1,11.9-1.7
			c5.5-1,11-2.3,16.3-3.9c7.2-2.1,14.3-4.8,21.1-8c1.8-0.9,3.7-1.7,5.5-2.6c0,1.7,0,3.3,0,5c-6,3-12.1,5.5-18.4,7.7
			c-5.7,2-11.6,3.6-17.4,5c-3.7,0.8-7.4,1.5-11.1,2c-3.6,0.5-7.2,0.9-10.7,1.2c-7,0.7-14.1,0.4-21.1,0.4c-3.8,0-7.6-0.4-11.4-0.9
			c-8.8-1.2-17.5-2.9-26-5.4c-5.6-1.7-11.1-3.6-16.5-5.9c-3.4-1.4-6.7-2.9-9.9-4.5C164.7,386.7,162.7,385.9,161,384.6z"/>
		<path class="st4" d="M78.5,240.5c0,2.7,0,5.3,0,8c-0.5-2.4-0.1-4.8-0.2-7.2C78.3,241,78.2,240.8,78.5,240.5z"/>
		<path class="st4" d="M104.4,157c-0.2,1-0.8,1.8-1.4,2.6c-0.3,0.1-0.4-0.1-0.2-0.3C103.4,158.5,103.7,157.6,104.4,157z"/>
		<path class="st4" d="M96,171.8l-0.1,0c0,0-0.1,0-0.1,0c0-0.2,0.2-0.6,0.3-0.5C96.4,171.5,96,171.7,96,171.8z"/>
		<path class="st4" d="M96.7,170.4C96.6,170.4,96.6,170.4,96.7,170.4c-0.1,0-0.1,0-0.1,0C96.5,170.3,96.6,170.3,96.7,170.4
			C96.6,170.3,96.6,170.3,96.7,170.4z"/>
		<path class="st4" d="M96.8,170C96.8,169.9,96.8,169.9,96.8,170c0-0.1,0-0.1,0-0.1C96.9,169.8,96.9,169.9,96.8,170
			C96.9,169.9,96.9,169.9,96.8,170z"/>
		<path class="st4" d="M96.4,170.8C96.4,170.8,96.4,170.8,96.4,170.8c0,0.1,0,0.1,0,0.1C96.3,170.9,96.3,170.9,96.4,170.8
			C96.3,170.8,96.3,170.8,96.4,170.8z"/>
		<path class="st5" d="M309.3,383.1c-1.8,0.9-3.7,1.7-5.5,2.6c-6.8,3.2-13.9,5.8-21.1,8c-5.4,1.6-10.8,2.9-16.3,3.9
			c-4,0.7-7.9,1.3-11.9,1.7c-3.6,0.4-7.1,0.6-10.7,0.7c-2.1,0.1-4.1,0.2-6.2,0.2c-3.8-0.1-7.5-0.1-11.3-0.5
			c-5.2-0.5-10.3-1.2-15.4-2.1c-9.2-1.6-18-4.2-26.8-7.3c-3.7-1.3-7.3-2.9-10.9-4.5c-4.1-1.9-8-4.1-12.1-6.2c-4-2.4-8-4.9-11.9-7.6
			c-4.1-2.9-8.1-6-11.9-9.3c-3.8-3.3-7.5-6.6-10.9-10.2c-5.3-5.5-10.2-11.3-14.6-17.6c-5-7.1-9.5-14.5-13.3-22.4
			c-4.9-10.2-8.8-20.8-11.4-31.8c-1.2-5.2-2.2-10.5-2.9-15.9c-0.4-3.5-0.8-6.9-1-10.4c-0.2-4.1-0.6-8.3-0.4-12.4
			c0.2-4.5,0.4-9,0.9-13.4c0.6-5.2,1.4-10.4,2.4-15.6c1.4-7,3.3-13.8,5.7-20.5c1.6-4.6,3.5-9,5.5-13.4c3.8-8.4,8.5-16.3,13.8-23.9
			c2.9-4.1,6-8,9.2-11.8c3.3-3.9,6.8-7.6,10.5-11.1c5.5-5.2,11.2-10,17.3-14.3c3.7-2.6,7.5-5,11.3-7.4c3.9-2.1,7.8-4.4,11.9-6.3
			c8-3.8,16.3-6.9,24.8-9.3c4.5-1.3,9.1-2.3,13.6-3.3c2.7-0.6,5.5-0.9,8.3-1.2c3.5-0.5,6.9-0.8,10.4-1c1.4-0.1,2.8-0.2,4.3-0.2
			c1.2,0,2.4-0.2,3.5-0.3c3.6-0.1,7.2,0.1,10.7,0.3c4.5,0.2,8.9,0.7,13.3,1.3c7.7,1.1,15.3,2.8,22.8,5c6.1,1.8,12.1,4,18,6.6
			c2.3,1,4.6,2.1,6.8,3.1c2.8,1.6,5.7,3.1,8.5,4.7c5.1,2.9,9.9,6.1,14.6,9.6c4.8,3.6,9.4,7.4,13.8,11.5c4.1,3.9,8,8,11.7,12.2
			c5,5.6,9.4,11.7,13.4,18c4.5,7,8.4,14.4,11.6,22.1c3.7,8.6,6.5,17.4,8.6,26.5c1,4.2,1.8,8.5,2.3,12.8c0.5,4,1,8,1.2,12.1
			c0.2,4,0.6,8,0.4,11.9c-0.2,4.6-0.4,9.2-0.9,13.8c-0.9,8.4-2.4,16.7-4.6,24.9c-1.8,6.8-4.2,13.5-7,20.1c-1.5,3.6-3.2,7.2-5,10.7
			c-4.2,8.1-9.1,15.8-14.7,23c-3.1,4-6.4,7.9-9.9,11.6c-1.6,1.7-3.2,3.4-4.9,5.1c-4.4,4.2-8.9,8.2-13.7,11.9
			c-5.2,4-10.7,7.7-16.3,11.1C314.6,380.3,311.9,381.7,309.3,383.1z M392.8,244.5c0.1-85.3-69.1-154.5-154.6-154.6
			c-85.3-0.1-154.6,69.2-154.6,154.6c0,85.3,69.2,154.5,154.6,154.6C323.5,399.2,392.7,329.9,392.8,244.5z"/>
		<path class="st0" d="M392.8,244.5c-0.1,85.4-69.3,154.6-154.6,154.6C152.8,399,83.6,329.8,83.6,244.5
			c0-85.4,69.3-154.6,154.6-154.6C323.6,90,392.8,159.2,392.8,244.5z M217.4,240.3c0.2,0.3,0.6,0.4,0.9,0.5c0.4,0.7,1.2,0.3,1.7,0.6
			c0,0.5-0.4,0.7-0.7,1c-3.1,3.2-5.2,7.1-6.4,11.4c-0.4,1.6-0.7,3.2-0.9,4.8c0,0.5,0,1,0.5,1.2c0.6,0.2,0.8-0.2,1.1-0.5
			c0.2-0.2,0.4-0.5,0.6-0.7c0.1-0.2,0.3-0.2,0.5-0.1c0.1,0.1,0.2,0.4,0.1,0.4c-0.9,0.9-0.3,2.3-0.9,3.3c-0.7,1.3-1.1,2.7-1.6,4.1
			c-0.7,2.2-0.6,4.3,0.5,6.3c1.5,2.7,3.7,4.5,6.6,5.4c2,0.6,3.7,1.3,4.4,3.6c0.5,1.5,0.5,1.7-0.9,2.5c-4.2,2.2-8.9,3-13.5,3.9
			c-0.9,0.2-1.8,0.3-2.6,0.7c-3.3,1.7-6.3,4-9.4,5.9c-6.3,3.9-12.7,7.5-19.7,10.1c-1.7,0.6-3.5,1-5.3,1.6c-0.4,0.1-1.3,0-1.1,0.9
			c0.1,1.4-0.4,2.8-0.5,4.2c-0.6,6.6,0,13,2,19.3c0.2,0.5,0.3,1.1,1.1,1.4c-0.1-0.7-0.2-1.3-0.4-1.8c-1.9-7.3-2.6-14.6-1.6-22.1
			c0.1-0.7,0.3-1.1,1-1.2c0.5-0.1,0.9-0.2,1.4-0.3c5.3-1.3,10.2-3.7,15-6.3c4.7-2.5,9.2-5.4,13.7-8.3c2.2,4.8,4.2,9.6,5.9,14.5
			c0.9,2.7,1.6,5.5,3.1,8c0.3,0.5,0.5,1.1,1.3,1.1c-0.7,3.7-0.9,7.4-0.4,11.2c0,0.2-0.1,0.6,0.3,0.6c0.3,0,0.5,0,0.6-0.3
			c0.3-0.9,1-1.4,1.6-2.1c2.4-2.5,5.2-4.4,7.9-6.5c2.3-1.8,4.5-3.9,7.1-5.5c0.1,0.1,0.2,0.2,0.2,0.3c0.2,0.9,0.5,1.8,0.7,2.7
			c1.4,5.6,3.4,11,7,15.5c1.1,1.4,1.6,2.5,0.3,3.9c-0.1,0.1-0.1,0.3-0.2,0.4c-2,4.5-3.9,8.9-6.1,13.3c-0.2,0.4-0.5,0.7-0.1,1.2
			c0.6-0.5,0.9-1.2,1.3-1.8c2.1-4.1,3.9-8.4,5.6-12.7c0.1-0.4,0.1-0.9,0.6-1.1c0.7,0.7,1.6,0.6,2.5,0.8c0,0.6,0.1,1.3,0.4,1.8
			c1.4,2.2,2.6,4.6,3.6,7c1.8,4.4,3.6,8.8,5.5,13.1c0.7,1.5,1.2,3.3,3.5,3.4c1.4,0.1,1.8,0.1,2-1.3c0.1-0.5,0-1,0.5-1.2
			c0.7-0.2,0.3-0.8,0.4-1.2c0.6-0.4,0.5-0.9,0.4-1.5c-0.3-1.2-1-2.3-1.5-3.4c-2.1-5-3.5-10.2-5.3-15.2c-0.6-1.8-1-3.8-2.6-5.1
			c2-2.9,4-5.7,6-8.6c0.9-1.4,2.1-2.6,2.7-4.2l0,0c0.9-0.8,1-0.9,0.5-1.4l0.1,0l0-0.1c1.2-0.3,1.5,0.7,1.9,1.3
			c0.6,0.9,1.2,1.9,1.9,2.8c2.4,3.5,4.5,7.3,7,10.7c0.1,0.5,0.5,0.9,0.7,1.4c1.2,1.9,3.1,3.3,3.6,5.7c0.5-0.4,0.5-0.8,0.4-1.2
			c-0.1-0.8-0.2-1.6-0.3-2.4c-0.3-7.6,2.1-14.6,4.6-21.5c0.7,0.2,1.4,0.2,2,0.1c2.3-0.4,4.6-0.5,6.9-0.3c6.3,0.5,12.5,1.5,18.6,2.9
			c8.8,2,17.2,5.2,25.6,8.2c1.7,0.6,3.4,1.4,5.3,1.6c0.5,0.2,0.8,0.7,1.1,1.1c1.1,1.4,2.2,2.8,3.2,4.3c2,2.9,4.2,5.7,6,8.7
			c0.7,1.2,1.9,1.7,3.1,2.2c0.2,0,0.3,0,0.5,0c0.8-0.3,0.9-0.5,0.3-1.2c-0.3-3.4-0.7-6.8-1-10.2c-0.6-5.9-1.3-11.8-2-17.7
			c-0.2-1.3-0.1-2.7-1.6-3.7c-5.2-3.5-10.4-7-16-9.9c-8.3-4.2-17.1-7.3-25.6-11c-2.5-1.1-4.9-2.1-7.3-3.4c-1.3-0.7-2.6-1.4-3.6-2.6
			c-0.6-0.7-1.7-0.7-2.4-1.3c-0.6-0.5-0.9-1.5-2-0.9c-0.2,0.1-0.3-0.2-0.4-0.4c-0.3-0.4-0.6-0.7-1-1.1c-4.1-4.4-9-7.9-13.9-11.4
			c-1.9-1.3-1.8-3.4,0.1-4.7c0.8-0.5,1.6-1,2.4-1.5c2.9-1.9,5.3-4.2,6.3-7.6c0.7-2.4,0.5-4.8,0.5-7.2c0-1.6,0.3-3.1,0.7-4.6
			c0.2-0.7,0.6-1,1.3-0.9c1.5,0.2,2.8-0.5,3.8-1.6c1.4-1.6,2.1-3.5,2.1-5.7c0-1.7-0.1-3.5,0.6-5.1c0.7-1.7,1.4-3.5,2.6-5.1
			c1.4-2,2.5-4.1,2.1-6.7c-0.3-2.2-0.6-4.3-0.8-6.5c-0.4-2.8-1.6-5-3.6-6.9c-1.8-1.7-3.1-1.4-4.5,0c-0.8,0.7-1.4,1.7-2.5,2
			c-0.9-0.2-0.8-1-0.9-1.6c-0.2-0.9-0.3-1.9-0.4-2.8c-0.2-2.4-0.2-4.9,0.1-7.3c0.3-1.9,1.1-3.7,1.6-5.6c0.5-2,1-3.9,1.5-5.9
			c0.2-0.8,0.3-1.8,0-2.5c-1.2-2.9-1.3-5.8-1.4-8.9c-0.1-2-0.3-4.1-1.7-5.6c-2-2.3-3.5-4.8-5-7.4c-0.6-1-1.3-1.6-2.4-1.8
			c-2.1-0.6-4.2-0.8-6.3-0.6c-0.9,0.1-1.7-0.1-2.6,0.3c-3.8,2.1-7.9,2.9-12.1,3.4c-4.8,0.5-9.6,1.3-14.1,3c-2,0.8-3.9,1.6-5.3,3.3
			c-0.5,0.6-0.6,1-0.4,1.7c0.5,1.2,1,2.4,1.8,3.5c0.7,0.9,1.1,1.9,0.4,3.1c-0.7,1.2-1.3,2.5-2,3.8c-2.9,5.6-5.8,11.1-9.5,16.2
			c-0.2,0.2-0.4,0.6-0.3,0.9c0.3,1.7-0.1,3.6,0.8,5.3c0.5,1.9,0.8,3.9,1.6,5.7c0.1,0.4,0.2,0.7,0,1c-0.8,0.5,0.1,1.3-0.3,1.8
			c-1.6,2.9-3.2,5.8-4.7,8.7c-0.6,1.2-1.3,2.5-1.4,3.9c-0.7,0.9-1.4,1.7-2,2.6c-0.2,0.1-0.3,0.2-0.4,0.5c-1.5,1.6-2.8,3.4-4,5.2
			c-0.8,1.2-1.5,2.5-1.6,4c0,0.2,0,0.3,0,0.5c-0.1,1.1-0.1,2.3,0.3,3.4c0,0.3,0.1,0.3,0.3,0.1c0.2,0.1,0.4,0.1,0.5,0.2
			c0.4,0.6,0.9,1.1,1.5,1.4C217.2,240.2,217.3,240.3,217.4,240.3z M161.6,223.6c-1.1,0.6-2.1,1.4-3.3,1.6c-4.6,0.4-9.3,0.5-13.9-0.4
			c-10.5-2-19.6-6.6-27.7-13.5c-7.5-6.5-11.8-14.4-11.2-24.7c0.5-8.8,3.7-16.2,9.5-22.7c7.5-8.5,25.7-17,37.9-16.2
			c5.6,0.3,10.9,1.2,15.9,3.6c10.2,4.8,18,12.4,24.3,21.7c2,2.9,3.5,6.1,3.5,9.8c0,0.4,0,0.9,0.5,0.9c0.5,0,0.6-0.5,0.6-0.9
			c0-0.7,0-1.4-0.1-2c-0.4-3.1-1.6-6-3.2-8.6c-5.3-8.7-12.4-15.5-21.1-20.7c-8.8-5.2-18.3-6.8-28.2-5.2c-10.4,1.6-19.9,6-28,12.8
			c-10.9,9.2-15.1,21.1-13.5,35.1c0.8,6.4,4.1,11.8,8.6,16.2c9.9,9.8,21.6,15.8,35.6,17c3.6,0.3,7.3,0,10.9-0.6
			C160.4,226.4,161.6,225.1,161.6,223.6z M157.2,186.4c0.1,1.3,0,2.6,0.7,3.9c0.3,0.6,0.8,0.6,1.3,0.4c0.5-0.3,1.5-0.3,1.2-1.1
			c-0.3-0.9-0.2-1.8-0.2-2.7c0.1-3.6-0.8-3.2,3.1-5.3c3-1.7,3.5-4.7,1.3-7.4c-1.3-1.5-3.4-2-5.1-1.2c-2.2,1.1-3.3,3.2-2.7,5.2
			c0.5,1.8,0.6,3.5,0.5,5.3C157.4,184.4,157.3,185.3,157.2,186.4z M140.7,210.3c-0.1,0.6-0.1,1-0.2,1.4c-0.3,2.1-0.5,4.1-0.1,6.2
			c0.2,1.2,0.9,1.2,1.8,1.1c1-0.2,1-0.9,0.8-1.5c-0.2-0.9-0.3-1.7-0.2-2.6c0.2-2.5,0.2-5,0.6-7.5c0.4-2.1-0.5-3.3-2.1-4.3
			c-0.2-0.1-0.5-0.3-0.7-0.4c-2-1.2-3.9-0.8-5.1,1.2c-0.9,1.5-1.3,3.1-1.3,4.9c0.1,2.3,1.9,3.5,4,2.7
			C138.9,211,139.7,210.7,140.7,210.3z M213,219.1c0.2,0,0.6,0,0.7-0.3c0.1-0.4-0.2-0.6-0.5-0.7c-0.7-0.4-1.5-0.7-2.4-0.8
			c-5.4-0.5-10.9-0.4-16.2,0.6c-8.5,1.6-16.9,3.2-25.4,4.9c-0.7,0.1-1.9,0.1-1.7,0.8c0.1,0.8,1.3,0.4,2,0.3
			c5.5-0.7,10.9-1.8,16.3-2.8c7.1-1.4,14.3-2.8,21.6-2.5C209.2,218.6,211.1,218.8,213,219.1z M133.5,174.9c-1.2-0.7-1.2-1.8-1.5-2.8
			c-0.3-1.4-0.5-2.9-1-4.3c-0.3-0.8-1-1.3-1.9-1c-0.9,0.3-0.7,1.1-0.5,1.8c0.7,2.4,1.6,4.8,2.5,7.1c0.2,0.4,0.4,0.9,0.9,1.1
			c1.4,0.5,1.1,1.5,0.9,2.6c-0.1,0.5-0.2,1.1-0.3,1.7c-0.1,0.6-0.1,1.1,0.1,1.6c0.3,0.6,1.4,1,2.1,0.6c0.7-0.4,0.4-0.9,0.2-1.4
			c-0.1-0.3-0.1-0.6-0.1-0.9c-0.1-1.9,0.5-3.7,0.9-5.5c0.5-2.6,1.5-5,2.3-7.5c0.4-1.2,0-1.6-1.2-1.5c-0.9,0.1-1.1,0.8-1.4,1.5
			C134.6,170.2,134.1,172.5,133.5,174.9z M168,178.8c0.1,0.7,0.1,1.2,0.2,1.6c0.4,2.2,1.4,3,3.6,2.8c2.1-0.2,3.6-1.4,4.8-3
			c0.6-0.9,0.6-2,0.2-3c-1-2-2.4-3.7-4.1-5.1c-0.9-0.8-1.8-0.6-2.4,0.3C169,174.4,168.3,176.7,168,178.8z M151.6,211
			c0.1,0.9,0.4,1.5,1.3,1.7c0.5,0.1,1.1,0,1.4-0.5c0.4-0.7,0-1.4-0.3-2c-0.3-0.5-0.4-1-0.5-1.6c-0.1-1.8,0-3.7-0.4-5.5
			c-0.1-0.8-0.5-1.2-1.4-1.2c-0.9,0-1,0.6-1,1.3c0,1.2-0.1,2.3-0.1,3.5c0,1.1-0.5,2-1.4,2.7c-0.7-1.6-0.4-3.1-0.3-4.6
			c0.1-0.6,0.1-1.3,0.1-1.9c0-0.5-0.2-1.1-0.9-1.3c-0.7-0.1-1.2,0.1-1.5,0.7c-0.5,0.7-0.6,1.5-0.6,2.4c0,1.3,0,2.6,0,3.8
			c0,1.5,1,2.7,2.5,3C149.5,211.8,150.6,211.7,151.6,211z M142.2,183.2c1.6,0,3.1-1.1,4.5-2.5c0.9-1,1.1-2.2,0.6-3.4
			c-0.9-2.1-2.4-3.7-4.1-5.2c-0.7-0.7-1.7-0.7-2.3,0.2c-1.5,2.6-2.7,5.2-2.2,8.3C139,182.5,139.9,183.2,142.2,183.2z M159,211.6
			c2.6,0,4.5-0.7,6-2.3c0.5-0.6,0.9-1.3,0.9-2.2c-0.1-0.7-0.4-1-1.1-0.6c-0.9,0.5-1.5,1.3-2.2,2c-0.7,0.7-1.5,1.1-2.5,1.2
			c-0.7,0.1-1.4,0.1-1.5-0.9c-0.1-0.9,0.3-1.6,1.3-1.7c1.5-0.1,2.9-0.8,4.4-1.1c1.1-0.3,1.3-1.1,0.5-1.9c-0.7-0.7-1.5-1.2-2.2-1.8
			c-1.6-1.2-2.9-1-4.1,0.6c-1.2,1.5-1.9,3.1-2.1,5C155.8,210.4,156.8,211.6,159,211.6z M215.1,217.3c-0.2-1-0.7-1.8-1.1-2.5
			c-3.5-6.3-6.8-12.6-10-19c-1.5-3-2.9-6.1-4.6-8.9c-0.2-0.3-0.4-0.8-0.9-0.6c-0.4,0.2-0.1,0.6,0,1c0.4,1.5,1.1,2.8,1.7,4.2
			c4,8.3,8.1,16.5,13.2,24.1C213.8,216.2,214.2,216.9,215.1,217.3z M182.7,173.8c-0.2-1.4-0.9-1.6-1.9-1.5c-1,0.1-1.2,0.9-1.2,1.7
			c-0.2,3,0.5,5.8,1.4,8.7c0.3,0.9,1,0.5,1.6,0.4c0.6-0.1,0.7-0.4,0.6-1c-0.2-1.1-0.2-2.1-0.3-3.2c-0.2-2.3,1.3-4,3.7-4
			c0.7,0,1.2-0.1,1.4-0.8c0.2-0.8-0.3-1.2-1-1.4C185.5,172.2,183.9,172,182.7,173.8z M123.4,183.7c1.3,0,2-0.5,2.8-1.1
			c0.3-0.2,0.4-0.6,0.3-1c-0.1-0.4-0.5-0.5-0.8-0.6c-0.5-0.1-0.9,0.2-1.3,0.5c-0.6,0.4-1.3,0.4-1.8-0.1c-0.5-0.5-0.1-1,0.2-1.4
			c0.8-1.1,1.6-2.2,2.4-3.3c1.5-2.1,1.1-4.1-1-5.5c-0.4-0.3-0.8-0.3-1.1-0.1c-0.4,0.2-0.5,0.7-0.3,1.1c0.2,0.4,0.5,0.8,0.8,1.2
			c0.7,0.8,0.6,1.5,0,2.2c-0.9,1.1-1.8,2.2-2.5,3.3c-0.6,0.9-1.1,2-0.4,3C121.2,183.2,122.3,183.7,123.4,183.7z M170.8,195
			c-0.7,0-1.4,0.5-2.1,1.1c-0.3,0.3-0.4,0.7-0.2,1.1c0.2,0.4,0.6,0.5,1,0.3c0.3-0.1,0.5-0.2,0.8-0.3c0.6-0.2,1.2-0.5,1.8,0
			c0.6,0.6,0,1.2-0.2,1.7c-0.5,1.1-1.4,2-2.1,3c-1.4,2-1.4,2.7,0.1,4.6c0.5,0.6,1,1.6,1.9,1c1-0.6,0.2-1.5-0.3-2
			c-0.7-0.9-0.6-1.7,0.1-2.6c0.8-1,1.6-2,2.3-3.1C175.3,197.3,174.1,195.1,170.8,195z M162.6,196.4c-1.5,0-2.7,1.3-3,3.3
			c-0.1,0.4-0.2,0.8,0.2,1.1c0.4,0.3,0.9,0.1,1.2-0.1c1-0.8,1.9-1.8,2.5-3C163.9,196.7,163.6,196.3,162.6,196.4z M124,166.5
			c-1.3,0-1.7,0.5-1.7,1.9c0,0.9,0.7,1.6,1.6,1.6c0.7,0,1.9-1.4,1.8-2.3C125.7,166.7,124.9,166.5,124,166.5z M170.7,212.3
			c1.2,0,1.6-0.4,1.7-1.6c0-1-0.6-1.6-1.5-1.6c-0.8,0-1.7,1-1.7,2C169.1,212.1,169.8,212.3,170.7,212.3z"/>
		<path class="st6" d="M350.2,343.5c-1.2-0.5-2.4-1.1-3.1-2.2c-1.8-3.1-4-5.8-6-8.7c-1-1.5-2.1-2.9-3.2-4.3
			c-0.3-0.4-0.6-0.8-1.1-1.1c-1.4-2.3-3.2-4.3-5.4-5.7c-0.4-0.2-0.9-0.5-1.2-0.4c-0.9,0.3-1.4-0.2-1.9-0.6c-2.5-2.1-5.2-4-7.8-5.9
			c-7.9-5.9-16.3-11.1-24.4-16.6c-1.9-1.3-4-2.4-6.2-3.3c-1.4-0.6-2.8-1.2-4.1-2c1-2.9,2.3-5.5,3.8-8.1c1.1-1.9,1.5-2,3.3-0.7
			c0.2,0.1,0.3,0.2,0.5,0.4c1.1,1.4,2.7,2.2,4.2,3.1c5.2,3.1,11.1,4.8,16.5,7.5c4.5,2.2,9.4,3.6,13.9,5.8c6.4,3.3,12.5,7.1,18.6,11
			c0.5,0.3,0.5,0.7,0.5,1.2c0.7,7.6,1.3,15.3,2.5,22.9C349.7,338.3,350.2,340.9,350.2,343.5z"/>
		<path class="st7" d="M350.2,343.5c0-2.6-0.4-5.2-0.8-7.8c-1.2-7.6-1.8-15.2-2.5-22.9c0-0.5,0-0.9-0.5-1.2
			c-6.1-3.9-12.1-7.7-18.6-11c-4.5-2.3-9.4-3.6-13.9-5.8c-5.4-2.7-11.3-4.4-16.5-7.5c-1.5-0.9-3.1-1.7-4.2-3.1
			c-0.1-0.2-0.3-0.3-0.5-0.4c-1.9-1.3-2.2-1.2-3.3,0.7c-1.5,2.6-2.8,5.3-3.8,8.1c-0.1,0.1-0.2,0.3-0.2,0.4
			c-2.7,7.1-4.9,14.4-7.1,21.7c-2.5,7-4.9,14-4.6,21.5c0,0.8,0.1,1.6,0.3,2.4c0.1,0.5,0.1,0.8-0.4,1.2c-0.6-2.4-2.4-3.8-3.6-5.7
			c-0.3-0.4-0.6-0.8-0.7-1.4c0.2,0,0.4,0,0.6,0c0.2,0.3,0.5,0.6,0.7,0.9c0.7,1,1.5,2,2.4,3.2c-0.2-2.4-0.2-4.5,0-6.6
			c0.2-2.1,0.6-4.2,1.2-6.2c2.8-8.8,5.6-17.5,8.4-26.3c1.7-5.1,3.6-10.2,6.8-14.6c0.5-0.6,0.1-0.8-0.4-1c-0.4-0.2-1.2-0.1-1.1-0.6
			c0.1-0.7-0.3-0.8-0.6-1.1c-4.1-4.2-8.9-7.3-13.6-10.8c-0.1,0-0.2,0-0.4,0c0.8,2.1,1.5,4.1,1.8,6.2c0.1,0.6,0,1-0.5,1.4
			c-1.2,1-2.3,2.2-3.5,3.3c-0.5,0.5-1.1,1.1-1.6,1.6c-2.1,2.4-4.4,4.7-6.3,7.3l0,0c-0.7,0.4-1.1,1-1.5,1.6
			c-3.7,3.8-7.5,7.6-11.2,11.3c-0.3,0-0.5,0-0.8,0c0.4-0.5,0.7-1,1.1-1.4c2.3-2.3,4.6-4.6,6.9-6.9c1.2-1.3,2.6-2.5,3.6-4
			c0.4-0.1,0.5-0.4,0.8-0.7c3.3-3.7,6.5-7.5,10.1-10.9c0.3-0.3,0.7-0.6,1-0.8c0.9-0.6,1.2-1.4,0.9-2.5c-0.4-1.7-1-3.3-1.6-5
			c-0.5-1.5-0.7-3-0.3-4.6c0-0.1,0-0.2,0-0.3c-0.1,0-0.2,0-0.3,0.1c-2.9,1.1-5.6,2.5-8.2,4.2c-3.3,2.2-6.2,4.8-9.7,6.7
			c-7,4-14.4,5.1-22.2,2.5c-0.5-0.2-1.1-0.3-1.6-0.4c-0.4-0.4-0.8-0.4-1.2-0.1c-0.3,0-0.6-0.1-0.9-0.1c-0.1-0.2-0.3-0.2-0.5-0.2
			c-1.3-0.1-2.5,0.1-3.8,0.2c-0.3,0-0.8,0.1-0.7,0.5c0.5,0.9,0.9,2.1,1.7,2.5c4.8,2.6,8.8,6,11.7,10.6c1.5,2.3,2.6,4.8,3.9,7.3
			c0,0.4,0.2,0.7,0.2,1.1c0.3,1.5,1.4,2.9,1.3,4.5c-0.5-0.1-0.5-0.5-0.7-0.9c-0.8-1.8-1.2-3.8-2.2-5.5c-0.3-0.8-0.6-1.5-1.1-2.1
			c-2.6-5.9-6.8-10.3-12.5-13.7c0.3,0.8-0.1,1.2-0.2,1.8c-0.8-0.3-1.3,0.2-1.8,0.6c-2.9,1.8-6.2,2.5-9.5,3.2
			c-2.8,0.6-5.8,0.6-8.2,2.3c-0.9,0.6-1.8,1.2-2.6,1.8c-4.5,2.9-8.9,5.8-13.7,8.3c-4.8,2.5-9.6,5-15,6.3c-0.5,0.1-0.9,0.2-1.4,0.3
			c-0.5-0.2-1,0.2-1.5,0.1c-0.2-1,0.7-0.8,1.1-0.9c1.7-0.6,3.5-1,5.3-1.6c7-2.5,13.4-6.2,19.7-10.1c3.2-1.9,6.1-4.2,9.4-5.9
			c0.8-0.4,1.7-0.6,2.6-0.7c4.6-0.8,9.3-1.6,13.5-3.9c1.4-0.8,1.4-1,0.9-2.5c-0.7-2.2-2.4-3-4.4-3.6c-2.9-0.9-5.1-2.6-6.6-5.4
			c-1.1-2.1-1.2-4.2-0.5-6.3c0.5-1.4,0.9-2.8,1.6-4.1c0.5-1.1-0.1-2.4,0.9-3.3c0,0,0-0.3-0.1-0.4c-0.2-0.2-0.4-0.1-0.5,0.1
			c-0.2,0.2-0.4,0.5-0.6,0.7c-0.3,0.3-0.5,0.8-1.1,0.5c-0.6-0.2-0.6-0.7-0.5-1.2c0.1-1.6,0.4-3.2,0.9-4.8c1.2-4.3,3.2-8.1,6.4-11.4
			c0.3-0.3,0.7-0.5,0.7-1c-0.5-0.3-1.3,0-1.7-0.6c0.2-0.1,0.3-0.3,0.3-0.5c0.3,0,0.6-0.1,1-0.1c0.7,0.4,1.5,0.4,2.2,0.2
			c2.8-0.5,5.6-0.9,8.3-1.7c5-1.5,10.1-2.9,14-6.9c1.6-0.5,3.2-0.6,4.8,0c0.3,0.3,0.7,0.6,1,0.9c0,0.2,0,0.4-0.1,0.7
			c-0.3-0.2-0.6-0.5-1-0.7c-1.3-0.6-2.8-1-4-0.1c-2.9,2.1-5.9,3.8-9.2,5.2c-4,1.7-8.2,2.4-12.4,3.1c-0.7,0.1-1.6-0.1-2,0.8
			c-0.3,0.3-0.7,0.6-1,0.9c-3.8,3.9-6,8.6-7,14c-0.1,0.6-0.2,1.2-0.3,2c2.5-2.2,4.7-4.3,6.7-6.7c2.4-2.9,5.1-5.5,9.1-6.2
			c0.3,0,0.5-0.1,0.4-0.5c0.2,0,0.5-0.1,0.7-0.1c0.4,0.5,0.8,0.5,1.2,0l0.1,0l0.1,0c0.5,0.5,1,0.3,1.6,0.1l0.1,0l0.1,0
			c0.2,0.2,0.3,0.1,0.5,0.1c3.3,0.1,6.7,0.2,10,0.9c6.9,1.4,13.3,4,18.7,8.6c2.5,2.1,4.7,4.3,6.9,6.7c0.2,0.2,0.5,1.1,0.8,0.1
			c0.6-3.7,0.3-7.4-0.7-11c-1.7-6.3-4.3-11.9-9.8-15.8c0-0.2,0-0.4,0-0.6c0.7,0.2,1.2,0.6,1.7,1c2.8,2,4.6,4.8,6.2,7.8
			c1.3,2.5,2.1,5.2,3.1,7.8c0.5,3.8,1.1,7.7,0.2,11.5c-0.5,0.7-0.2,2.1-1.9,2c1.5-1.3,0.5-2.1-0.3-2.8c-1.6-1.6-3.3-3.2-5-4.7
			c-4.1-3.7-8.8-6.5-14.1-8.2c-5.7-1.9-11.6-2.5-17.6-2.4c-3,0-5.6,0.9-7.9,2.8c-2.5,2-4.3,4.6-6.4,6.9c-1.4,0.8-0.9,2.2-1.2,3.3
			c-0.9,2.2-1.8,4.4-2.6,6.6c-0.3,0.7-0.5,1.4-0.4,2.2c-0.2,0.4-0.2,0.8-0.2,1.2c0.1,2.9,1.5,5.1,3.9,6.6c2.1,1.4,4.4,2.2,7.1,1.6
			c2.9-0.7,5.9-0.5,8.7,0.7c1.5,0.7,3.1,0.9,4.7,1c7.5,0.4,14.1-1.5,20.1-6.1c3.4-2.6,6.8-5.2,10.8-6.9c1.2-0.5,2.6-0.7,3.6-1.6
			c1.5-1.3,3.2-2.4,4.8-3.5c2.2-1.5,4.1-3.2,5-5.8c0.7-1.9,0.9-3.8,0.9-5.8c-0.1-2.3,0-4.6,1.1-6.7c0.3-0.6,0-0.8-0.5-1
			c-0.9-0.4-1.8-0.8-2.2-1.8c0.1-0.1,0.2-0.2,0.3-0.3c0.3,0.2,0.7,0.4,1,0.6c2.2,1.5,5.5,1.4,7-1.2c0.6-1,1-2,1.2-3.1
			c0.4-2.5,0.1-5.2,1.4-7.6c0,0,0.1,0,0.1,0c0,0,0,0,0-0.1c0,0,0,0.1-0.1,0.1c-0.4-0.3-0.9,0.5-1.2-0.1c-0.3-0.5,0.3-0.8,0.6-1.2
			c0.2-0.2,0.4-0.3,0.5-0.5c1.9-2.3,3.8-4.5,3.9-7.7c0.1-2.1-0.5-4.2-0.5-6.3c0-3-1.2-5.3-3.4-7.2c-0.6-0.5-1.2-0.9-1.9-0.7
			c-0.9-0.4-1.2,0.5-1.7,0.8c-0.9,0.6-1.5,1.8-2.9,1.7c0-0.2,0-0.3,0-0.5c1.1-0.4,1.7-1.3,2.5-2c1.4-1.4,2.8-1.6,4.5,0
			c2,1.9,3.3,4.1,3.6,6.9c0.3,2.2,0.5,4.3,0.8,6.5c0.4,2.6-0.7,4.7-2.1,6.7c-1.1,1.6-1.8,3.3-2.6,5.1c-0.7,1.6-0.6,3.4-0.6,5.1
			c0,2.1-0.7,4.1-2.1,5.7c-1,1.1-2.2,1.8-3.8,1.6c-0.7-0.1-1.1,0.2-1.3,0.9c-0.5,1.5-0.7,3-0.7,4.6c0,2.4,0.2,4.9-0.5,7.2
			c-1,3.5-3.4,5.8-6.3,7.6c-0.8,0.5-1.6,1-2.4,1.5c-1.9,1.2-2,3.3-0.1,4.7c4.9,3.5,9.8,6.9,13.9,11.4c0.3,0.4,0.7,0.7,1,1.1
			c0.1,0.2,0.3,0.4,0.4,0.4c1.1-0.6,1.4,0.4,2,0.9c0.7,0.6,1.8,0.6,2.4,1.3c1,1.2,2.3,1.9,3.6,2.6c2.3,1.3,4.8,2.3,7.3,3.4
			c8.5,3.7,17.3,6.8,25.6,11c5.6,2.8,10.8,6.3,16,9.9c1.5,1,1.4,2.4,1.6,3.7c0.7,5.9,1.3,11.8,2,17.7c0.4,3.4,0.7,6.8,1,10.2
			c-0.4,0.3-0.3,0.8-0.3,1.2C350.5,343.5,350.3,343.5,350.2,343.5z M215.4,257.9c0,0-0.1,0.1-0.2,0.1c0,0,0.1,0.1,0.1,0.1
			C215.4,258,215.5,258,215.4,257.9C215.5,257.9,215.5,257.9,215.4,257.9z"/>
		<path class="st8" d="M278.3,314.6c2.2-7.3,4.4-14.6,7.1-21.7c0.1-0.1,0.2-0.3,0.2-0.4c1.3,0.8,2.7,1.4,4.1,2
			c2.2,0.9,4.3,2,6.2,3.3c8.1,5.6,16.5,10.8,24.4,16.6c2.6,1.9,5.3,3.8,7.8,5.9c0.5,0.5,1.1,0.9,1.9,0.6c0.3-0.1,0.9,0.1,1.2,0.4
			c2.3,1.5,4,3.4,5.4,5.7c-1.9-0.2-3.6-1-5.3-1.6c-8.4-3.1-16.8-6.3-25.6-8.2c-6.1-1.4-12.3-2.4-18.6-2.9c-2.4-0.2-4.6-0.1-6.9,0.3
			C279.6,314.8,278.9,314.9,278.3,314.6z"/>
		<path class="st1" d="M161.6,223.6c0,1.5-1.2,2.8-2.9,3.1c-3.6,0.6-7.2,0.9-10.9,0.6c-14-1.1-25.7-7.2-35.6-17
			c-4.5-4.5-7.8-9.8-8.6-16.2c-1.6-14,2.6-25.9,13.5-35.1c8.1-6.9,17.6-11.2,28-12.8c9.9-1.5,19.4,0,28.2,5.2
			c8.7,5.2,15.8,12,21.1,20.7c1.6,2.6,2.8,5.5,3.2,8.6c0.1,0.7,0.1,1.4,0.1,2c0,0.4,0,0.9-0.6,0.9c-0.5,0-0.5-0.5-0.5-0.9
			c0-3.7-1.5-6.9-3.5-9.8c-6.3-9.2-14.1-16.9-24.3-21.7c-5-2.4-10.3-3.2-15.9-3.6c-12.2-0.7-30.4,7.8-37.9,16.2
			c-5.8,6.5-9,14-9.5,22.7c-0.6,10.3,3.7,18.1,11.2,24.7c8,7,17.2,11.6,27.7,13.5c4.6,0.9,9.2,0.8,13.9,0.4
			C159.6,225,160.5,224.2,161.6,223.6z"/>
		<path class="st6" d="M258.4,317.9L258.4,317.9c0,0.1-0.1,0-0.1,0c-0.2,0.5-0.9,0.7-0.5,1.4c0,0,0,0,0,0c-0.8-0.3-0.9,0.4-1.2,0.8
			c-3.3,4.6-6.5,9.2-9.7,13.8c-1,0.5-2,1.1-3.1,1.2c0.1-0.4,0.2-0.9,0.3-1.3c0.5-3.7,0.9-7.4,1.3-11.1c0.5-4.6,0.9-9.3,0.9-13.9
			c0-0.9,0-1.8,0.5-2.6c0.8-0.4,1.7-0.9,2.5-0.5c1,0.6,2,1.4,2.7,2.3c2.1,2.7,4.1,5.4,6.1,8.1C258.5,316.6,258.7,317.2,258.4,317.9z
			"/>
		<path class="st9" d="M285.4,206.8c0,0.2,0,0.3,0,0.5c-1.1,0.8-2,1.9-2.8,3c-0.5,0.6-1.2,1-1.4,1.8c-0.1,0.3,0,0.6-0.4,0.6
			c-0.4,0-0.6-0.2-0.6-0.7c0-0.8-0.2-1.7-0.2-2.5c0.7-4.3,0.2-8.6-0.4-12.9c-0.4-3.1-1.9-5.7-3.6-8.3c-1.3-2.8-3-5.4-4.5-8.1
			c-0.1-0.5,0.3-0.9,0.5-1.3c1.7-3.2,3.2-6.5,4.5-9.9c0.1-0.2,0.2-0.3,0.3-0.5c0.6,0.5,0.4,1.1,0.1,1.7c-1.3,3.1-2.5,6.2-4.2,9.1
			c-0.4,0.7-0.4,1.2,0,1.9c0.7,1.2,1.5,2.5,2.2,3.7c2.1,3.8,4.9,7.3,5.5,11.8c0.4,2.5,0.5,5.1,0.7,7.7c0,2.1-0.1,4.1-0.1,6.2
			c0,0.1-0.1,0.3,0.1,0.4c0,0,0.1-0.1,0.2-0.2c0.5-0.6,1-1.2,1.5-1.7c1.6-1.3,1.6-1.3,1-3.2c-0.1-0.2-0.1-0.4-0.2-0.6
			c-0.7-2.5-0.6-5.1-0.5-7.7c0-0.6,0.1-1.2-0.2-1.8c0.1-0.3,0.2-0.5,0.3-0.8c0.1-1,0.7-1.9,0.5-2.9c0.3,0,0.5-0.2,0.5-0.5
			c0.3-0.9,0.7-1.8,0.9-2.8c0.3-1.2,0.9-2.4,0.6-3.7c0.3,0,0.4-0.2,0.4-0.5c0.7-1.7,0.8-3.3,0-5c-0.6-1.3-0.8-2.7-0.8-4.2
			c0.1-3.6-0.2-7.1-2.8-10.1c-1.6-1.9-2.9-4.1-4.1-6.3c-0.2-0.4-0.5-0.8-1-0.9c-2.2-0.4-4.4-0.8-6.7-0.6c-0.4,0-0.8-0.2-1,0.3
			c-0.7,0.1-1.5-0.1-2.2,0.3c-2.7,1.6-5.8,2.3-8.9,2.7c-3.8,0.5-7.6,0.8-11.4,1.7c-3,0.7-6,1.5-8.7,3.3c-1.8,1.2-2,1.9-1,3.8
			c0.4,0.7,0.9,1.3,1.3,2c0.4,0.9,1.2,1.2,2,1.3c1.6,0.1,3.2,0.2,4.7-0.3c1.9-0.6,3.8-1.1,5.8-1.4c1.5-0.2,3.1-0.3,4.5,0.1
			c1.1,0.3,2.3,0.5,3.4,0.6c0.8,0.6,1.8,0.3,2.6,0.5c2.1,0.5,4.2,0.2,6.1-0.9c2-1.2,4.1-2.3,6.2-3.4c0.8-0.4,1.6-0.8,2.5-0.5
			c0,0.1,0,0.2,0,0.4c-1.1,0.2-1.9,0.8-2.8,1.2c0,0-0.1-0.2,0,0c-2.3,1.5-4.7,2.8-7.1,4c-2.3,0.5-4.6,0.4-6.8-0.3
			c-4.5-1.4-8.9-1.3-13.4,0.3c-1.6,0.6-3.3,0.8-5,0.6c-0.7-0.1-1.5-0.4-2-0.1c-0.5,0.3-0.5,1.3-0.8,1.9c-3.1,6.6-6.5,12.9-10.6,18.9
			c-0.6,0.9-1,1.8-0.9,2.9c0,0.1,0.1,0.1,0.1,0.2c0.2-0.1,0.2-0.6,0.6-0.3c0.4,0.8-1,1.2-0.3,2.1c1.1-1,2.6-1.4,4.1-1.7
			c0.3,0.7-0.3,0.7-0.6,0.8c-0.9,0.4-1.7,0.8-2.7,1.1c-0.8,0.3-1.2,0.7-0.9,1.6c-0.1,0-0.3,0-0.4,0.1c-0.9-1.7-0.5-3.5-0.8-5.3
			c0-0.3,0.2-0.6,0.3-0.9c3.7-5.1,6.6-10.7,9.5-16.2c0.7-1.3,1.3-2.6,2-3.8c0.7-1.2,0.3-2.2-0.4-3.1c-0.8-1.1-1.4-2.2-1.8-3.5
			c-0.3-0.7-0.1-1.2,0.4-1.7c1.4-1.7,3.3-2.5,5.3-3.3c4.6-1.7,9.3-2.5,14.1-3c4.3-0.4,8.4-1.3,12.1-3.4c0.8-0.5,1.7-0.3,2.6-0.3
			c2.1-0.2,4.2,0.1,6.3,0.6c1,0.3,1.8,0.9,2.4,1.8c1.5,2.5,3.1,5.1,5,7.4c1.4,1.6,1.6,3.7,1.7,5.6c0.1,3,0.2,6,1.4,8.9
			c0.3,0.7,0.2,1.7,0,2.5c-0.5,2-1,4-1.5,5.9c-0.5,1.9-1.3,3.7-1.6,5.6c-0.3,2.4-0.4,4.8-0.1,7.3c0.1,0.9,0.2,1.9,0.4,2.8
			C284.5,205.8,284.5,206.6,285.4,206.8z"/>
		<path class="st8" d="M249.1,332.2c1.6,1.3,2,3.3,2.6,5.1c1.8,5.1,3.3,10.3,5.3,15.2c0.5,1.1,1.1,2.2,1.5,3.4
			c0.2,0.6,0.2,1.1-0.4,1.5c-0.8-2.7-1.7-5.3-2.7-7.9c-2-4.8-3.9-9.7-6.2-14.4c-0.1-0.2-0.1-0.7-0.6-0.5c-0.5,0.2,0,0.5,0.1,0.8
			c1.4,3.5,2.9,7,4.4,10.5c1.8,4.2,3.3,8.5,4.8,12.8c-0.5,0.3-0.5,0.7-0.5,1.2c-0.2,1.4-0.6,1.4-2,1.3c-2.3-0.2-2.8-1.9-3.5-3.4
			c-1.9-4.3-3.7-8.8-5.5-13.1c-1-2.4-2.2-4.7-3.6-7c-0.3-0.6-0.5-1.2-0.4-1.8c1.8,0.2,3.5-0.4,5-1.4
			C248,333.9,248.4,332.9,249.1,332.2z"/>
		<path class="st10" d="M157.2,186.4c0.1-1,0.1-2,0.2-2.9c0.1-1.8,0-3.6-0.5-5.3c-0.6-2,0.5-4,2.7-5.2c1.6-0.9,3.8-0.4,5.1,1.2
			c2.2,2.7,1.7,5.7-1.3,7.4c-3.9,2.2-3,1.7-3.1,5.3c0,0.9-0.1,1.8,0.2,2.7c0.3,0.8-0.7,0.9-1.2,1.1c-0.5,0.3-1,0.3-1.3-0.4
			C157.3,189,157.3,187.6,157.2,186.4z M160.1,177c0.1,1,0.1,1.7,0.2,2.5c0,0.3,0,0.6,0.5,0.4c1.5-0.4,2.4-1.7,2.1-3.1
			c-0.2-1.1-1.2-2.3-1.7-2C160.2,175.3,160.2,176.3,160.1,177z"/>
		<path class="st10" d="M140.7,210.3c-0.9,0.4-1.7,0.7-2.5,1c-2.2,0.8-4-0.4-4-2.7c0-1.8,0.4-3.4,1.3-4.9c1.3-2,3.1-2.4,5.1-1.2
			c0.2,0.1,0.5,0.3,0.7,0.4c1.6,1,2.5,2.2,2.1,4.3c-0.4,2.5-0.4,5-0.6,7.5c-0.1,0.9,0,1.7,0.2,2.6c0.2,0.7,0.2,1.4-0.8,1.5
			c-0.9,0.1-1.6,0.1-1.8-1.1c-0.4-2.1-0.2-4.1,0.1-6.2C140.5,211.3,140.6,210.9,140.7,210.3z M140.5,206.4c-0.1-1.1-0.6-1.8-1.5-2.1
			c-0.8-0.2-1.1,0.6-1.4,1.2c-0.3,0.7-0.6,1.4-0.8,2.1c-0.1,0.4-0.4,0.9,0,1.2c0.3,0.3,0.8,0,1.2-0.2
			C139.1,208.3,140.3,207.8,140.5,206.4z"/>
		<path class="st5" d="M213,219.1c-1.9-0.3-3.8-0.5-5.6-0.6c-7.3-0.3-14.5,1.1-21.6,2.5c-5.4,1-10.8,2.1-16.3,2.8
			c-0.7,0.1-1.9,0.4-2-0.3c-0.1-0.7,1.1-0.7,1.7-0.8c8.5-1.6,16.9-3.3,25.4-4.9c5.4-1,10.8-1.1,16.2-0.6c0.8,0.1,1.6,0.3,2.4,0.8
			c0.3,0.2,0.6,0.3,0.5,0.7C213.5,219.1,213.2,219.1,213,219.1z"/>
		<path class="st10" d="M133.5,174.9c0.6-2.4,1-4.7,1.9-7c0.3-0.6,0.4-1.4,1.4-1.5c1.2-0.1,1.5,0.3,1.2,1.5
			c-0.8,2.5-1.8,4.9-2.3,7.5c-0.3,1.8-0.9,3.6-0.9,5.5c0,0.3,0,0.7,0.1,0.9c0.3,0.5,0.6,1-0.2,1.4c-0.7,0.4-1.8,0-2.1-0.6
			c-0.3-0.5-0.2-1.1-0.1-1.6c0.1-0.5,0.2-1.1,0.3-1.7c0.3-1.1,0.5-2.1-0.9-2.6c-0.4-0.2-0.7-0.7-0.9-1.1c-1-2.3-1.9-4.7-2.5-7.1
			c-0.2-0.7-0.4-1.5,0.5-1.8c0.9-0.3,1.6,0.2,1.9,1c0.6,1.4,0.7,2.9,1,4.3C132.3,173.1,132.4,174.3,133.5,174.9z"/>
		<path class="st9" d="M230.4,313.2c-2.5,1.6-4.7,3.7-7.1,5.5c-2.7,2.1-5.6,4-7.9,6.5c-0.6,0.6-1.3,1.2-1.6,2.1
			c-0.1,0.4-0.4,0.3-0.6,0.3c-0.5,0-0.3-0.3-0.3-0.6c-0.5-3.7-0.3-7.5,0.4-11.2c0.2-0.8,0.4-1.6,0.6-2.4c0.3-0.2,0.3-0.6,0.4-0.9
			c0.8-2.7,1.6-5.3,2.4-8c0.8-2.9,1.7-5.8,2.5-8.7c0.8-3,1.9-5.9,3.4-8.6c0.2-0.3,0.2-1.1,1-0.6c-0.5,0.9-1,1.7-1.4,2.6
			c-2.3,6.4-3.9,13-5.9,19.5c-0.8,2.7-1.8,5.5-2.3,8.3c-0.3,1.7-0.5,3.5-0.5,5.2c0.1,1.2,0.1,2.3,0.2,3.7c1.2-1.1,2-2.2,3.1-3.1
			c4.1-3.2,8.2-6.6,12.3-9.7c3.1-2.4,6.1-4.8,9.7-6.3c0.1,0.1,0.2,0.2,0.3,0.3c-1.5,0.9-3.1,1.6-4.3,2.9c-1.2,0.3-1.9,1.4-2.9,1.9
			C231.1,312.2,230.8,312.8,230.4,313.2z"/>
		<path class="st10" d="M168,178.8c0.3-2.1,1-4.4,2.3-6.4c0.6-0.9,1.5-1.1,2.4-0.3c1.7,1.4,3.1,3.1,4.1,5.1c0.5,1,0.5,2.1-0.2,3
			c-1.2,1.7-2.7,2.8-4.8,3c-2.2,0.3-3.3-0.6-3.6-2.8C168.1,180,168,179.6,168,178.8z M174.4,178.5c0-0.9-1.3-2.6-2.2-3
			c-0.4-0.2-0.5,0-0.6,0.3c-0.5,1.2-0.8,2.5-0.7,3.8c0,0.5,0.3,1.1,0.9,1.2C172.6,181,174.4,179.3,174.4,178.5z"/>
		<path class="st10" d="M151.6,211c-1,0.7-2.1,0.8-3.1,0.6c-1.5-0.3-2.5-1.5-2.5-3c0-1.3,0-2.6,0-3.8c0-0.8,0.2-1.7,0.6-2.4
			c0.4-0.5,0.9-0.8,1.5-0.7c0.7,0.1,0.8,0.7,0.9,1.3c0.1,0.6,0,1.3-0.1,1.9c-0.2,1.5-0.4,3,0.3,4.6c0.9-0.7,1.4-1.6,1.4-2.7
			c0-1.2,0.1-2.3,0.1-3.5c0-0.7,0.2-1.3,1-1.3c0.9,0,1.2,0.4,1.4,1.2c0.3,1.8,0.2,3.7,0.4,5.5c0,0.6,0.1,1.1,0.5,1.6
			c0.4,0.6,0.8,1.3,0.3,2c-0.3,0.5-0.8,0.6-1.4,0.5C152,212.5,151.7,211.9,151.6,211z"/>
		<path class="st10" d="M142.2,183.2c-2.3,0-3.2-0.8-3.5-2.6c-0.6-3.1,0.7-5.8,2.2-8.3c0.6-0.9,1.5-0.9,2.3-0.2
			c1.7,1.5,3.2,3.1,4.1,5.2c0.5,1.2,0.3,2.4-0.6,3.4C145.3,182.2,143.7,183.2,142.2,183.2z M141.4,179c0,0.8,0.1,1.8,1,1.7
			c0.9-0.1,1.9-0.6,2.3-1.6c0.4-0.9-0.1-1.6-0.6-2.3c-0.3-0.4-0.7-0.7-1-1c-0.5-0.4-0.8-0.5-1.1,0.3
			C141.7,177,141.4,177.9,141.4,179z"/>
		<path class="st10" d="M159,211.6c-2.2,0-3.2-1.2-2.9-3.8c0.2-1.9,0.9-3.5,2.1-5c1.2-1.6,2.5-1.7,4.1-0.6c0.8,0.6,1.5,1.1,2.2,1.8
			c0.9,0.8,0.7,1.6-0.5,1.9c-1.5,0.4-2.8,1-4.4,1.1c-1,0.1-1.4,0.8-1.3,1.7c0.1,1,0.9,0.9,1.5,0.9c1-0.1,1.8-0.5,2.5-1.2
			c0.7-0.7,1.3-1.5,2.2-2c0.7-0.4,1-0.1,1.1,0.6c0.1,0.9-0.3,1.5-0.9,2.2C163.5,211,161.6,211.6,159,211.6z M160.3,205.3
			c0.6-0.2,1.6,0.2,1.7-0.7c0.1-0.6-0.8-0.8-1.3-0.8c-0.7,0-1.2,0.5-1.3,1.1C159.3,205.5,159.9,205.1,160.3,205.3z"/>
		<path class="st8" d="M213.9,313.5c-0.2,0.8-0.4,1.6-0.6,2.4c-0.8,0-1-0.6-1.3-1.1c-1.4-2.5-2.2-5.3-3.1-8c-1.7-5-3.7-9.8-5.9-14.5
			c0.9-0.6,1.8-1.2,2.6-1.8c0.3,0.1,0.4,0.3,0.5,0.6c0.3,2.1,1,4.1,1.5,6.1c1.3,4.8,2.3,9.6,5,13.9
			C213.1,311.9,213.2,312.9,213.9,313.5z"/>
		<path class="st7" d="M215.1,217.3c-0.9-0.4-1.2-1.1-1.6-1.7c-5.1-7.7-9.2-15.9-13.2-24.1c-0.7-1.4-1.3-2.7-1.7-4.2
			c-0.1-0.3-0.4-0.7,0-1c0.5-0.3,0.7,0.3,0.9,0.6c1.8,2.9,3.2,5.9,4.6,8.9c3.2,6.4,6.5,12.7,10,19
			C214.4,215.5,214.8,216.2,215.1,217.3z"/>
		<path class="st10" d="M182.7,173.8c1.2-1.8,2.8-1.6,4.3-1.2c0.7,0.2,1.1,0.6,1,1.4c-0.2,0.8-0.7,0.8-1.4,0.8c-2.3,0-3.9,1.7-3.7,4
			c0.1,1.1,0.1,2.1,0.3,3.2c0.1,0.6,0.1,0.9-0.6,1c-0.6,0.1-1.4,0.5-1.6-0.4c-0.8-2.8-1.6-5.7-1.4-8.7c0-0.8,0.2-1.5,1.2-1.7
			C181.8,172.3,182.5,172.5,182.7,173.8z"/>
		<path class="st11" d="M258.4,317.9c0.3-0.7,0.1-1.3-0.3-1.9c-2-2.7-4-5.5-6.1-8.1c-0.7-0.9-1.7-1.7-2.7-2.3
			c-0.8-0.4-1.7,0-2.5,0.5c-1.6,0.5-3.1,0.6-4.5-0.3c0-0.2,0.1-0.4,0.3-0.5c3.3,0.9,4.9,0.3,6.9-2.5c0.1-0.2,0.3-0.3,0.4-0.4
			c0.3,0,0.5,0,0.8,0c-0.3,0.6-1.1,0.9-1.2,1.6c-0.1,1,1.1,0.8,1.4,1.5c0,0,0.1,0.1,0.1,0.1c1.3,1.6,2.7,3.1,3.9,4.7
			c5.5,7.1,10.3,14.7,15,22.4c-0.2,0-0.4,0-0.6,0c-2.5-3.5-4.6-7.2-7-10.7c-0.6-0.9-1.2-1.9-1.9-2.8
			C259.8,318.6,259.5,317.6,258.4,317.9z"/>
		<path class="st11" d="M239.7,335c-0.5,0.1-0.5,0.7-0.6,1.1c-1.7,4.3-3.5,8.6-5.6,12.7c-0.3,0.7-0.7,1.3-1.3,1.8
			c-0.4-0.5-0.1-0.8,0.1-1.2c2.2-4.4,4.1-8.8,6.1-13.3c0.1-0.1,0.1-0.3,0.2-0.4c1.3-1.4,0.8-2.5-0.3-3.9c-3.6-4.6-5.6-9.9-7-15.5
			c-0.2-0.9-0.5-1.8-0.7-2.7c0.2,0,0.3,0,0.5-0.1c0.3,0.5,0.5,1.1,0.5,1.7c-0.2,0.4,0.2,0.5,0.4,0.6c-0.3,0.7,0.3,1.1,0.4,1.7
			c0,0.5,0.1,1.1,0.6,1.4l0,0.1l0,0.1c-0.1,0.1-0.3,0.3,0,0.3c0.1,0.1,0.1,0.2,0.2,0.4c-0.1,0.1-0.2,0.3,0.1,0.4
			c1.7,5.1,4.3,9.7,7.9,14.1C240.3,334.3,239.4,333.8,239.7,335L239.7,335z"/>
		<path class="st1" d="M123.4,183.7c-1,0-2.1-0.6-2.8-1.7c-0.7-1.1-0.2-2.1,0.4-3c0.8-1.1,1.7-2.2,2.5-3.3c0.6-0.8,0.7-1.4,0-2.2
			c-0.3-0.4-0.6-0.8-0.8-1.2c-0.2-0.4-0.1-0.8,0.3-1.1c0.3-0.2,0.7-0.2,1.1,0.1c2.1,1.4,2.5,3.5,1,5.5c-0.8,1.1-1.6,2.2-2.4,3.3
			c-0.3,0.4-0.7,1-0.2,1.4c0.5,0.5,1.2,0.5,1.8,0.1c0.4-0.2,0.8-0.6,1.3-0.5c0.4,0.1,0.7,0.2,0.8,0.6c0.1,0.4,0,0.7-0.3,1
			C125.4,183.3,124.6,183.7,123.4,183.7z"/>
		<path class="st1" d="M170.8,195c3.2,0.1,4.5,2.3,2.9,4.8c-0.7,1.1-1.5,2.1-2.3,3.1c-0.7,0.8-0.8,1.6-0.1,2.6
			c0.4,0.6,1.2,1.4,0.3,2c-0.9,0.6-1.4-0.4-1.9-1c-1.4-1.9-1.4-2.6-0.1-4.6c0.7-1,1.6-1.9,2.1-3c0.3-0.5,0.8-1.1,0.2-1.7
			c-0.5-0.6-1.2-0.3-1.8,0c-0.3,0.1-0.5,0.2-0.8,0.3c-0.4,0.1-0.8,0.1-1-0.3c-0.2-0.4-0.1-0.8,0.2-1.1
			C169.4,195.5,170.2,195.1,170.8,195z"/>
		<path class="st7" d="M227.1,201.3c0.1,0,0.3,0,0.4-0.1c0.1,0.1,0.3,0.2,0.4,0.3c0.4,1,0.4,2.1,0.9,3c0.1,1.1,0.4,2.2,0.7,3.3
			c1.4-0.9,2.9-1.5,4.4-2.1c1,0.1,2-0.1,2.9,0.3c-0.5,0.4-0.5,0.4-0.1,0.7c0.5,0.9-0.1,1.5-0.7,1.9c-0.6,0.4-1.3,0.5-2,0.8
			c-1-0.1-1.8-0.5-1.9-1.5c0-0.2-0.2-0.4-0.4-0.3c-0.7,0.4-1.6,0.5-2,1.4c0,0.1,0,0.1,0,0.2c0,0.1,0,0.1,0,0.2
			c-0.9,1.4-1.5,3-2.3,4.4c-1.4,2.2-2.5,4.6-3.7,6.9c-0.2,0.4-0.6,0.8-0.1,1.3c0.1,0.4-0.3,0.6-0.5,1c-0.3-0.1-0.6-0.2-0.8-0.5
			c0.1-1.4,0.7-2.7,1.4-3.9c1.5-2.9,3.1-5.8,4.7-8.7c0.5-0.5,0.2-1.2,0.3-1.8c0.1-0.3,0.1-0.7,0-1
			C227.9,205.1,227.6,203.2,227.1,201.3z M235.6,207c0.1-1.3-0.7-0.8-1.3-0.6c-0.5,0.1-1.3,0-1.2,0.7c0,0.3,0.2,1.3,1.1,1.1
			C234.9,208.1,235.7,208,235.6,207z"/>
		<path class="st9" d="M171.5,307.3c0.5,0.1,1-0.3,1.5-0.1c-0.7,0.1-0.9,0.5-1,1.2c-1,7.5-0.3,14.8,1.6,22.1
			c0.1,0.5,0.2,1.1,0.4,1.8c-0.8-0.4-0.9-0.9-1.1-1.4c-2-6.3-2.6-12.7-2-19.3C171.1,310.1,171.6,308.7,171.5,307.3z"/>
		<path class="st9" d="M257.8,358.7c-1.4-4.3-3-8.6-4.8-12.8c-1.5-3.5-2.9-7-4.4-10.5c-0.1-0.2-0.5-0.6-0.1-0.8
			c0.4-0.2,0.5,0.3,0.6,0.5c2.3,4.7,4.2,9.6,6.2,14.4c1.1,2.6,2,5.2,2.7,7.9C258,357.9,258.5,358.4,257.8,358.7z"/>
		<path class="st7" d="M249.1,332.2c-0.7,0.6-1.1,1.6-1.9,2.2c-0.2-0.1-0.3-0.3-0.3-0.5c3.2-4.6,6.5-9.2,9.7-13.8
			c0.3-0.4,0.4-1.1,1.2-0.8c-0.6,1.6-1.8,2.9-2.7,4.2C253.1,326.5,251.1,329.3,249.1,332.2z"/>
		<path class="st10" d="M162.6,196.4c0.9-0.1,1.2,0.3,0.9,1.2c-0.5,1.2-1.4,2.2-2.5,3c-0.4,0.3-0.8,0.4-1.2,0.1
			c-0.4-0.3-0.3-0.7-0.2-1.1C159.9,197.7,161.2,196.4,162.6,196.4z"/>
		<path class="st7" d="M214.4,234.6c0.1-1.5,0.7-2.8,1.6-4c1.2-1.8,2.6-3.6,4-5.2c0.1,0.2,0.2,0.4,0.3,0.7c-0.3,0.5-0.7,1-1.1,1.4
			c-1.2,1.6-2.7,3.1-3.5,5c-0.9,2.1-1.4,4.2,0.4,6.1c-0.2,0.1-0.4,0.1-0.6,0.2c-0.2-0.1-0.4-0.1-0.5-0.2c-0.1,0-0.2-0.1-0.3-0.1
			c-0.4-1.1-0.5-2.2-0.3-3.4C214.6,234.9,214.6,234.7,214.4,234.6z"/>
		<path class="st1" d="M124,166.5c0.9,0,1.6,0.2,1.7,1.2c0.1,0.9-1.1,2.3-1.8,2.3c-0.9,0-1.6-0.7-1.6-1.6
			C122.3,167,122.7,166.5,124,166.5z"/>
		<path class="st10" d="M170.7,212.3c-0.9,0-1.6-0.2-1.5-1.3c0-0.9,1-2,1.7-2c0.9,0,1.5,0.7,1.5,1.6
			C172.3,211.9,171.9,212.3,170.7,212.3z"/>
		<path class="st4" d="M246.9,333.9c0,0.2,0.1,0.4,0.3,0.5c-1.5,1-3.2,1.5-5,1.4c-0.9-0.2-1.8-0.1-2.5-0.8c0,0,0,0,0,0
			c0.8,0,1.6,0.1,2.4,0.1c0.6,0,1.1,0,1.7,0C245,335,245.9,334.4,246.9,333.9z"/>
		<path class="st9" d="M222.4,222.4c0.2,0.3,0.4,0.4,0.8,0.5c-0.4,1.1-1.7,1.5-2.3,2.4c-0.1-0.2-0.3-0.3-0.5-0.4
			C221,224.1,221.7,223.2,222.4,222.4z"/>
		<path class="st9" d="M215.6,238.7c0.2-0.1,0.4-0.1,0.6-0.2c0.6,0.4,1,1.1,1.8,1.3c-0.2,0.2-0.6,0.2-0.8,0.2
			C216.4,239.8,215.9,239.3,215.6,238.7z"/>
		<path class="st4" d="M231.1,313.5c-0.2,0-0.3,0-0.5,0.1c-0.1-0.1-0.2-0.2-0.2-0.3c0.4-0.5,0.7-1.1,1.5-1.1
			C231.7,312.6,230.9,312.8,231.1,313.5z"/>
		<path class="st9" d="M228.7,208c-0.1,0.6,0.2,1.3-0.3,1.8C228.8,209.2,227.9,208.5,228.7,208z"/>
		<path class="st6" d="M350.7,343.5c0-0.4-0.1-0.9,0.3-1.2C351.6,343.1,351.5,343.3,350.7,343.5z"/>
		<path class="st7" d="M220.3,225c0.2,0,0.4,0.1,0.5,0.4c-0.1,0.3-0.4,0.6-0.6,0.8c-0.1-0.2-0.2-0.4-0.3-0.7
			C220,225.2,220.1,225,220.3,225z"/>
		<path class="st7" d="M257.8,319.3c-0.5-0.7,0.3-0.9,0.5-1.4C258.8,318.4,258.8,318.5,257.8,319.3z"/>
		<path class="st9" d="M218.6,240.4c0,0.2-0.1,0.4-0.3,0.5c-0.4-0.1-0.7-0.2-0.9-0.5c0.3,0,0.6-0.1,0.9-0.1
			C218.4,240.3,218.5,240.3,218.6,240.4z"/>
		<path class="st7" d="M218.3,240.2c-0.3,0-0.6,0.1-0.9,0.1c-0.1-0.1-0.2-0.1-0.3-0.2c0.3,0,0.6,0,0.8-0.2
			C218.2,239.9,218.2,240.1,218.3,240.2z"/>
		<path class="st9" d="M214.7,238.4c0.1,0,0.2,0.1,0.3,0.1C214.8,238.7,214.7,238.7,214.7,238.4z"/>
		<path class="st9" d="M214.4,234.6c0.2,0.2,0.2,0.3,0,0.5C214.3,234.9,214.3,234.7,214.4,234.6z"/>
		<path class="st12" d="M218.3,240.2c-0.1-0.1-0.2-0.4-0.4-0.3c-0.7-0.2-1.2-0.9-1.8-1.3c-1.8-1.9-1.3-4-0.4-6.1
			c0.8-1.9,2.2-3.4,3.5-5c0.4-0.5,0.7-1,1.1-1.4c0.2-0.2,0.5-0.4,0.6-0.8c0.6-1,1.9-1.3,2.3-2.4c0.1-0.3,0.6-0.5,0.5-1c0,0,0,0,0,0
			c0.2,0.3,0.4,0.1,0.6-0.1c3.3-2.9,6.9-5.4,10.6-7.6c1.6-1,3.3-1.9,4.8-3.1c0.9-0.3,1.8-0.6,2.3-1.4c-0.3-0.4-0.7,0.2-1-0.3
			c0.1-0.1,0.2-0.2,0.3-0.3c0.6-0.4,1.2-0.7,1.4-1.7c0.5-3,0.4-6,0.9-9c0-0.3,0-0.4-0.3-0.6c-0.8-0.4-1.4-1-2.4-0.9
			c-2.2-1.8-4.9-2.7-7.6-3.1c-0.2,0-0.5-0.1-0.6,0c-1.5,1.1-3.3,1.6-4.4,3.1c0,0,0,0.1,0,0.1c0,0.1,0.1,0.1,0.1,0.2l0,0
			c-0.1,0-0.2,0-0.3,0c0,0.1,0,0.2,0,0.3l0,0c-0.4-0.3-0.4,0.2-0.6,0.3c0-0.1-0.1-0.1-0.1-0.2c-0.2-1.1,0.3-2,0.9-2.9
			c4-6,7.5-12.4,10.6-18.9c0.3-0.6,0.3-1.6,0.8-1.9c0.4-0.3,1.3,0,2,0.1c1.7,0.2,3.4,0,5-0.6c4.4-1.6,8.9-1.7,13.4-0.3
			c2.2,0.7,4.5,0.8,6.8,0.3c1.3,0.7,2.1-0.4,3.1-0.8c0.1,0.2,0.2,0.3,0.3,0.5c0.3,2,0.6,3.9,0.5,5.9c0,0.6-0.1,1.4,0.9,1.4
			c1.5,2.7,3.2,5.3,4.5,8.1c-0.6-0.1-1,0.2-1.3,0.7c-1.3,1.6-2.8,3.1-2.9,5.4c-0.4-0.3-0.8-0.6-1.2-0.7c-2.6-1.2-5.1-2.4-8-0.9
			c-2.3,0.5-4.4,1.2-6.6,2.1c-2,0.8-2.1,1.1-1.9,3.2c0.1,1,0.2,1.9,0.3,2.8c-1.1-0.2-1.6,0-1.6,1.3c0,0.7-0.3,1.3-0.8,1.9
			c0-0.1,0-0.2,0-0.3c0.1-0.1,0.2-0.3,0-0.4c-0.3-0.1-0.4,0.1-0.4,0.3c-1.5,2.6-1.5,5.5-1.3,8.4c0,0.4-0.1,0.7-0.1,1.1
			c-0.6,1-0.3,2.1-0.2,3.1c0.1,3.1,0.2,6.2,0.9,9.2c-0.3,0-0.6,0-1-0.1c-0.5-0.4-1.1-0.2-1.9-0.1c0.7,0.5,1.3,0.5,1.9,0.5
			c0.2,0.1,0.5,0.2,0.7,0.3c-0.1,0.5,0.2,0.8,0.4,1.2c0.9,1.4,1.2,3,1.4,4.6c-1.1-0.2-1.9-1-3.1-0.8c-2-1.3-4.2-1.5-6.5-1.1
			c-0.8,0.1-1.6,0.3-2.1,1c-0.9,1.1-2.1,1.7-3.2,2.6c-0.2,0.2-0.6,0.3-0.7,0.6c-0.5,0.3-1,0.5-1.4,0.9c-3.4,2.5-7.1,4-11.4,4.1
			c-1.5,0.1-3.1,0.3-4.5,1c-0.3,0-0.6,0.1-1,0.1C218.5,240.3,218.4,240.3,218.3,240.2z M261.4,179c0.2-0.1,0.5,0,0.7-0.3
			c-0.8-0.6-1.6-0.9-2.6-1.1c-1.5-0.2-3.1-0.2-4.6,0.1c-0.5-0.1-1,0-1.4,0.2c-2,1.2-4.1,1.3-6.3,0.6c-0.4-0.1-0.9-0.3-1.3,0.1
			c2.8,0.9,5.6,0.7,8.3,0.8c1.7,0.1,3.3-0.2,5,0c0.2,0.4,0.5,0.4,0.8,0.3c0.1,0,0.3,0,0.4,0C260.9,179.8,261.4,179.7,261.4,179z
			 M251.3,184.1c1.3,0.2,2.7,0.6,4,0.2c0.4,0,0.8,0,1.2,0c0.6,0.2,1.2,0.2,1.7,0.1c1.1-0.3,2.2-0.5,3.3,0c0.7,0.4,1.2-0.5,1.4-0.9
			c0.3-0.4-0.3-0.5-0.7-0.5c-1-0.3-2-0.5-3-0.1c-0.6,0.2-1.2,0.2-1.9,0.3c-2.5,0.3-5-0.3-7.5-0.4c-2.1-0.1-4,0.1-6,0.7
			c-0.1,0-0.3,0.1-0.4,0.1c0,0.1,0.1,0.2,0.1,0.3c0.1-0.1,0.2-0.1,0.2-0.2c0.1,0,0.3,0.1,0.4,0.1c0,0.7,0.3,1,1,0.9
			C247.2,184,249.3,184.3,251.3,184.1z M254.9,188.7c-1.6,0.1-3.2,0.3-4.6,1.3c-0.2,0-0.5,0-0.7-0.1c-2.9-1.1-5.8-1.6-8.9-0.8
			c3.1-0.2,6,0.4,8.9,1.3c0.5,0.2,1,0.4,1.6,0.4c0.4,0.4,1,0.5,1.5,0.3c1.2-0.5,2.4-0.5,3.7-0.5c1.8,0,3.4-0.6,4.8-1.7
			c0.2,0,0.4,0,0.4-0.1c0.2-0.3-0.1-0.1-0.2-0.2C259.2,187.9,257,188.3,254.9,188.7z M240.2,179.9c1.8-0.4,3.5-0.9,5.2-1.3
			C243.5,178.5,241.7,178.6,240.2,179.9z"/>
		<path class="st0" d="M213.3,268.1c-0.2-0.8,0.1-1.5,0.4-2.2c0.9-2.2,1.7-4.4,2.6-6.6c0.4,0.1,0.6-0.3,0.9-0.5
			c1.3-1.5,2.8-2.7,4.4-3.8c2.1-1.3,4.1-2.7,6.1-4c0.7-0.4,1.3-0.9,1.6-1.7c0.1-0.1,0.2-0.2,0.3-0.2c1.4,0.6,2.8,1.2,3.9,2.2
			c1,1,2.1,1.5,3.3,2c0.8,0.4,1.4,0.3,2.2-0.1c3.1-1.7,6.4-2.7,9.9-2.9c1.4,0.3,2.7,0.6,4,1.2c2.5,1,4.8,2.4,6.6,4.5
			c-0.1,1.4-0.5,2.9-0.3,4.3c0.7,4.2-0.6,7.8-3.3,10.9c-0.5,0.6-0.8,1.2-0.8,1.9c-2.1,1.4-4.4,2.6-6.6,3.9c-1.5,0.9-3.2,1-4.9,0.8
			c-2.9-0.3-5.9-0.6-8.8-0.6c-0.7,0-1.3-0.2-2-0.5c-2.5-1.3-5-1.6-7.7-0.7c-2.7,0.9-4.8,0.1-6.9-1.6
			C216.2,272.6,214.6,270.5,213.3,268.1z M228.7,257.6c-0.8,0.1-1.5-0.5-2.4-0.4c0.6,0.9,1.7,0.8,2.4,1.4c1.4,1.4,3.2,2.2,5,2.6
			c4.7,1,8.9-0.7,12.7-3.3c0.3-0.2,0.4-0.5,0.6-0.7c1.2-0.7,2-1.7,2.5-3.1c0.6-1.7,0.2-2.1-1.5-1.8c-0.6,0.1-0.7,0.4-0.8,0.9
			c-0.2,0.7-0.5,1.4-1.1,1.8c-1.4,1-2.7,2-4.3,2.5c-0.8,0.3-1.4,0.7-2,1.2c-0.2,0-0.3,0.1-0.5,0.1c-0.2-0.3-0.4-0.2-0.5,0.1
			c-1.3,0.3-2.6,0.3-4,0.2c-1.6-0.6-3.3-1.1-4.9-1.7C229.5,257.3,229.1,257.1,228.7,257.6z"/>
		<path class="st13" d="M279.9,209.6c0.1,0.8,0.2,1.7,0.2,2.5c0,0.5,0.3,0.6,0.6,0.7c0.4,0,0.3-0.3,0.4-0.6c0.2-0.8,1-1.2,1.4-1.8
			c0.8-1.1,1.7-2.2,2.8-3c1.4,0.2,2-1,2.9-1.7c0.5-0.3,0.8-1.2,1.7-0.8c0.1,0.2,0.2,0.5,0.4,0.7c-1.5,0-2.4,0.9-2.3,2.4
			c0,0.5-0.2,0.7-0.5,1c-0.5,0.5-1.3,0.7-1.6,1.4c-1,0.7-1.6,2-2.7,2.6c-1.3,0.7-2,1.8-2.2,3.3c-0.4,0.4-0.1,0.5,0.3,0.5
			c0.8,0,1.4-0.4,2.1-0.6c0.6,0.2,1-0.2,1.4-0.4c1.7-1,3.4-2,5.1-3c-0.2,2.2,0.3,4.3,0.6,6.4c0.3,2.4,0.1,4.7-1.6,6.7
			c-0.7,0.8-1.4,1.9-1.1,3.2l0,0c-0.8,0.2-1,1-1.1,1.7c-0.5,2.6-1.1,5-3,7c-0.1,0.1-0.2,0.3-0.3,0.5c-0.7,0.5-1.6,0.7-2.1,1.5
			c-0.1,0.1-0.2,0.2-0.3,0.3c-0.5,0-0.6,0.4-0.6,0.7c-0.4,0.2-0.4,0.6-0.2,0.8c0.8,1.1-0.1,1.2-0.8,1.4c-1.2,0.3-2.3-0.1-3.5-0.2
			c-1.2-0.1-2.1-0.7-2.9-1.5c-1-1-2-2-3.1-2.9c-1.6-1.3-2.7-3-3.1-5.1c-0.6-0.8-1.3-1.5-1.9-2.3c-2-2.3-4.1-4.5-5.7-7
			c-0.4-1.3-0.8-2.7-1-4c-0.2-1.5-0.5-3,0.1-4.4c0.3,0.3,0.6,0.5,0.8,0.8c0.1,0.5,0.6,0.6,1,0.8c2,0.8,4.1,1,6.2,0.2
			c1.4-0.5,2.9-1,3.8-2.3c0.2-0.2,0.6-0.4,0.4-0.7c-0.2-0.4-0.6-0.1-0.9,0c-0.4,0.2-0.8,0.4-1.2,0.6c-1.6,0.8-3.2,1.5-5,1.2
			c-0.1-0.7-0.9-1-1.3-1.5c-0.5-0.7-1.4-1.1-1.6-2c1.7-0.2,3.4-0.3,5.1-0.6c1.4-0.3,2.9-0.5,3.6-2c0.5-0.1,1,0.7,1.5,0
			c0.5,0,1-0.1,1.4-0.1c-0.1,0.3,0.2,0.4,0.4,0.5c0,0.2,0,0.4,0.1,0.6c-0.2,0.5,0,0.7,0.4,1c0.6,0.5,1.3,0.9,1.9,1.4
			c0,0.5-0.5,0.4-0.8,0.6c-0.8-0.5-1.6-1.1-2.5-1.7c0.5,1.8,1.3,3.2,2.6,4.3c2.3,0.8,2.7,0.6,2.4-1.4c0.3-0.7,0-1.1-0.7-1.3
			c0,0,0,0,0,0c0-0.1,0-0.2,0-0.2c0.1-0.2,0.2-0.5,0.3-0.7c0.1,0,0.2,0,0.4,0c0.6,0,1.3,0.1,1.4-0.7c0-0.7-0.6-0.8-1.3-1
			c-0.5-0.1-1.2-0.1-1.6-0.6c0.6-0.2,1.3,0,1.3-0.8c0.1-0.1,0.2-0.2,0.2-0.2c0.3-0.3,0.8-0.7,0.5-1.1c-0.3-0.5-0.9-0.3-1.4-0.1
			c-0.3,0.1-0.5,0.1-0.8,0.2c-0.2-0.3-1-0.1-0.8-0.9c0.1-0.4-0.4-0.8-1-0.7c-0.5-0.1-1.1,0-1.4,0.4c-0.6,0.8-1.5,1.4-2.1,2.2
			c-0.1,0-0.3,0-0.4-0.1c-2.7-1.4-5.5-2.6-8.4-3.4c0.3-0.5,0.8-0.6,1.3-0.8c1.7-0.7,3.3-1.4,4.7-2.6c0.4,0,0.8-0.1,1.2-0.1
			c0.4,0,1,1.1,1.3-0.2c0-0.1,0.5-0.3,0.8-0.2c1.6,0.5,3.3,1,4.5,2.2c1.7,1.6,3.6,3,4.8,5.1C279.5,209.5,279.6,209.6,279.9,209.6z
			 M272.5,225c0,5,3.5,11.9,6.8,12.5c-0.7-0.7-1.3-1.2-1.9-1.8c0.4-0.2,1,0.3,1.2-0.2c0.1-0.4-0.3-0.8-0.6-1.1
			c-1.5-1.9-2.9-3.9-3.8-6.2c-0.4-0.9-0.4-2-1.1-2.8c-0.1-0.2-0.2-0.3-0.3-0.5c-0.1,0-0.1-0.1-0.2-0.1
			C272.5,224.9,272.5,224.9,272.5,225z M283.4,229c0.6,0.1,0.7-0.4,0.9-0.8c0.3-0.9,0.6-1.9,0.6-2.9c-0.1-1.6-0.1-1.6,1.5-1.8
			c0.3,0.1,0.5,0.1,0.7-0.2c1.2-2.1,1.6-4.4,1.9-6.8c0.1-0.6-0.3-0.7-0.7-0.4c-0.1-0.3-0.2-0.6-0.6-0.5c-0.4,0.1-0.4,0.5-0.4,0.9
			c-0.1,2.1-0.9,4-2.1,6c-0.2-1.3-0.3-2.3-1.3-3c-0.4-0.3-0.3-1-1.1-1.1c0.1,1,0.1,2.1,0.3,3.1c0.2,0.8,0,1.3-0.9,1.6
			c-1.2,0.4-1.3,1-0.4,1.8c1,0.8,1.1,1.7,0.8,2.8c-0.2,0.9-0.6,1.6-1.2,2.3c-0.5,0.5-0.9,1.1-1.1,1.8c-0.2,0.7-0.3,1.4,0.1,2.1
			c0.1,0.2,0.3,0.3,0.5,0.3c0.2,0,0.2-0.2,0.2-0.4C280.5,231.5,282.1,230.3,283.4,229z M279.8,215.5c0.4-0.8,0.6-1.4,0.5-2.2
			C279.7,214,279.5,214.5,279.8,215.5z"/>
		<path class="st12" d="M269.8,332.7c-4.7-7.7-9.5-15.3-15-22.4c-1.2-1.6-2.6-3.1-3.9-4.7c0,0-0.1-0.1-0.1-0.1
			c-0.3-0.7-1.5-0.5-1.4-1.5c0.1-0.7,0.9-1,1.2-1.6c3.7-3.8,7.5-7.6,11.2-11.3c1.2,0.1,1.4-0.7,1.5-1.6l0,0c0.9-0.2,1.3,0.4,1.6,1.1
			c2.3,4.7,4.7,9.4,7,14.2c0.2,0.4,0.3,0.8,0.7,1.1c-0.1,3.3-0.1,6.6-0.2,9.9c0,1,0,2-0.2,3c-1,4.7-1.8,9.4-1.5,14.2
			c0,0.3,0.1,0.6-0.2,0.7C270.3,333.3,270,333,269.8,332.7z"/>
		<path class="st6" d="M270.5,333.7c0.3-0.2,0.2-0.5,0.2-0.7c-0.3-4.8,0.5-9.5,1.5-14.2c0.2-1,0.2-2,0.2-3c0.1-3.3,0.1-6.6,0.2-9.9
			c0.4-0.2,0.3-0.6,0.3-1c0.4-4.5,0.2-8.9,0.3-13.4c0-1.5-0.1-2.9-0.5-4.4c-0.5-2.1-1-4.3-1.5-6.5c1.1-1.1,2.3-2.3,3.5-3.3
			c0.5-0.4,0.6-0.8,0.5-1.4c-0.3-2.1-1.1-4.2-1.8-6.2c0.2,0,0.3,0,0.4,0c4.6,3.5,9.5,6.6,13.6,10.8c0.3,0.3,0.7,0.5,0.6,1.1
			c-0.1,0.5,0.7,0.4,1.1,0.6c0.5,0.2,0.9,0.4,0.4,1c-3.2,4.4-5.1,9.5-6.8,14.6c-2.9,8.7-5.7,17.5-8.4,26.3c-0.6,2-1,4.1-1.2,6.2
			c-0.2,2.1-0.2,4.1,0,6.6C272,335.6,271.2,334.7,270.5,333.7z"/>
		<path class="st14" d="M228.2,278.2c0.3,0,0.6,0.1,0.9,0.1c5.8,4.5,9.7,10.6,13.5,16.7c0.1-0.3,0.1-0.5,0-0.6
			c-3-5.5-6.5-10.6-11.2-14.8c-0.4-0.3-0.9-0.5-1.1-1.1c0.5,0.1,1.1,0.2,1.6,0.4c7.8,2.6,15.2,1.5,22.2-2.5c3.4-1.9,6.4-4.5,9.7-6.7
			c2.6-1.7,5.3-3.1,8.2-4.2c0.1,0.1,0.1,0.1,0.2,0.2c-0.4,1.6-0.2,3.1,0.3,4.6c0.5,1.7,1.1,3.3,1.6,5c0.3,1.1,0,1.9-0.9,2.5
			c-0.4,0.2-0.7,0.5-1,0.8c-0.6-2.7-1.6-5.3-2.7-7.9c-0.3-0.8-0.6-1-1.4-0.3c-3.8,3.5-7.4,7.3-11.4,10.6c-3.3,1.9-5.9,4.8-8.3,7.7
			c-2.6,3-4.9,6.4-7,9.8c-0.2,0.4-0.5,0.8-1,0.8c-1.2-2.5-2.4-4.9-3.9-7.3c-2.9-4.6-7-8-11.7-10.6c-0.8-0.4-1.2-1.6-1.7-2.5
			c-0.2-0.4,0.4-0.4,0.7-0.5c1.3-0.2,2.5-0.3,3.8-0.2C227.8,278.3,227.9,278.6,228.2,278.2z"/>
		<path class="st13" d="M213.9,317.1c0.5-2.8,1.5-5.5,2.3-8.3c2-6.5,3.6-13.1,5.9-19.5c0.3-0.9,0.9-1.8,1.4-2.6c0,0,0-0.1,0-0.1
			c0.6-0.3,0.8-1,1.1-1.5c0.4-0.2,0.5-0.6,0.7-0.9c0.1-0.6,0.5-1.1,0.2-1.8c5.7,3.4,9.9,7.8,12.5,13.7c-1,0.3-1.7,1.2-2.6,1.6
			c-3,1.4-5.5,3.5-7.9,5.8c-3.9,3.7-7.4,7.8-11.2,11.7C215.6,316,215.1,317,213.9,317.1z"/>
		<path class="st14" d="M280.4,240.8c0-0.4,0.1-0.7,0.6-0.7c0.4,1,1.3,1.4,2.2,1.8c0.5,0.2,0.8,0.4,0.5,1c-1.1,2.1-1.1,4.4-1.1,6.7
			c0,2-0.2,3.9-0.9,5.8c-0.9,2.6-2.8,4.3-5,5.8c-1.6,1.1-3.4,2.2-4.8,3.5c-1,0.9-2.4,1.1-3.6,1.6c-4,1.7-7.4,4.3-10.8,6.9
			c-5.9,4.6-12.6,6.5-20.1,6.1c-1.7-0.1-3.2-0.3-4.7-1c-2.8-1.2-5.8-1.4-8.7-0.7c-2.7,0.6-5-0.3-7.1-1.6c-2.4-1.5-3.8-3.7-3.9-6.6
			c0-0.4-0.1-0.8,0.2-1.2c1.3,2.4,3,4.5,5.1,6.2c2.1,1.7,4.2,2.5,6.9,1.6c2.6-0.9,5.2-0.6,7.7,0.7c0.6,0.3,1.3,0.5,2,0.5
			c3,0,5.9,0.4,8.8,0.6c1.7,0.2,3.3,0.1,4.9-0.8c2.2-1.3,4.5-2.5,6.6-3.9c3.8-2.4,7.1-5.6,11-8c1.4-0.9,1.4-1.5,0.4-2.9
			c-0.3-0.5-0.7-1-1.1-1.4c-1.6-2-3.6-3.6-5.9-4.8c-1.8-2.1-4.1-3.5-6.6-4.5c-1.3-0.5-2.6-0.9-4-1.2c0-0.2,0-0.4-0.2-0.5
			c-0.9-0.4-1.7-0.9-2.8-0.9c-2.5,0-4.9-0.2-7.2,1.1c-0.5,0.3-1,0.5-1.5-0.2c-1.3-2-3.4-2.3-5.6-2.4c-1.4,0-3-0.4-4.2,0.9
			c0.7,0.4,1.6,0.1,2.1,0.7c-0.1,0.1-0.2,0.2-0.3,0.2c-1.5,0.3-2.9,0.8-4,1.9c-0.9,0.8-1.8,1.8-3,2.1c-1.5,0.4-2.8,1.1-3.8,2.3
			c-0.2,0.3-0.5,0.5-0.9,0.4c2.1-2.4,3.9-4.9,6.4-6.9c2.3-1.8,4.9-2.7,7.9-2.8c6-0.1,11.9,0.6,17.6,2.4c5.3,1.7,9.9,4.5,14.1,8.2
			c1.7,1.5,3.3,3.1,5,4.7c0.8,0.8,1.8,1.6,0.3,2.8c1.7,0,1.5-1.3,1.9-2c1.3,0,2.2-0.6,3-1.6c0.7-1,1.4-2,2.5-2.7
			c0.4-0.2,0.8-0.6,0.6-1.2c0.1-0.1,0.2-0.2,0.2-0.2c0.3,0,0.5-0.2,0.6-0.5c1.3-1.9,1.9-4,2.3-6.2c0.4-2.2,0.7-4.4,1.5-6.5
			C282,242,281.9,241.5,280.4,240.8z"/>
		<path class="st8" d="M259.4,234.9c5.5,3.9,8.1,9.6,9.8,15.8c1,3.6,1.3,7.3,0.7,11c-0.8-0.8-1.2-1.7-1.8-2.6
			c-1.9-3.3-4.2-6.1-7.6-8c-1.6-0.9-3.3-1.4-4.7-2.5c0-1-0.4-1.9-0.8-2.7c-1.7-3.5-4.6-6.1-7.3-8.8c-0.4-0.4-0.9-0.2-1.3,0
			c-1.1,0.5-2.1,1-3.3,1c0.8-1.2,1.9-2.3,1.7-4c-0.1-0.5,0.2-0.5,0.7-0.5c1.5,0.2,2.9,0.9,4.2,1.7c0.9,0.6,1.9,0.8,2.9,0.8
			c1.2,0.1,2-0.5,2.5-1.5c0.4-0.2,0.8-0.4,1-0.8c0.1-0.1,0.1-0.1,0.2-0.2C257.5,233.5,258.4,234.4,259.4,234.9z"/>
		<path class="st13" d="M240.5,299.1c0.5,0,0.7-0.4,1-0.8c2.1-3.5,4.4-6.8,7-9.8c2.5-2.9,5-5.7,8.3-7.7c0.8,3.4,2.4,6.5,4.5,9.3
			c-1,1.5-2.3,2.7-3.6,4c-2.3,2.3-4.6,4.6-6.9,6.9c-0.4,0.4-0.7,0.9-1.1,1.4c-0.1,0.1-0.3,0.3-0.4,0.4c-2.1,2.8-3.6,3.4-6.9,2.5
			c-0.2-0.2-0.3-0.4-0.5-0.6l0,0c0.1-1.6-1-2.9-1.3-4.5C240.7,299.9,240.5,299.5,240.5,299.1z"/>
		<path class="st14" d="M213.9,313.5c-0.7-0.7-0.8-1.6-1.3-2.4c-2.6-4.3-3.7-9.1-5-13.9c-0.5-2-1.3-4-1.5-6.1c0-0.3-0.2-0.5-0.5-0.6
			c2.5-1.8,5.5-1.7,8.2-2.3c3.3-0.7,6.6-1.5,9.5-3.2c0.2,0,0.5,0,0.6,0.3c-0.2,0.5-1,0.7-0.5,1.4c0,0,0,0.1,0,0.1
			c-0.7-0.5-0.8,0.3-1,0.6c-1.5,2.7-2.6,5.6-3.4,8.6c-0.8,2.9-1.6,5.8-2.5,8.7c-0.8,2.7-1.6,5.3-2.4,8
			C214.2,313,214.2,313.3,213.9,313.5z"/>
		<path class="st6" d="M251.9,204.1c0.5-0.5,0.8-1.2,0.8-1.9c0-1.2,0.6-1.5,1.6-1.3c0.1,0.4,0.1,0.9,0.2,1.3
			c0.2,0.9,1.4,1.3,2.2,0.7c2.7-2.1,6-3.1,9.2-4.3c0.3,0,0.6,0.1,0.9,0.1c2.9,0.1,5.3,1.3,7.6,2.9c-1.1,0.2-2-0.2-3-0.4
			c-2-0.6-4-0.4-6-0.1c-1.2,0.1-2.5-0.6-3.7,0.2c0.3,0.4,0.6,0.2,0.9,0.3c0,0.4-0.4,0.7-0.7,0.9c-1.5,0.7-2.7,1.9-4.1,2.8
			c-0.3,0.2-1.1,0.2-0.7,0.9c-1.2,0.3-2.1,1.1-3.2,1.6c-0.3-1.5,0.9-2.9,0.5-4.4c-0.5,1.2-1,2.4-1.2,3.7c-0.1,0.5,0.2,0.8,0.6,1.1
			c0.1,0.3,0.3,0.6,0.4,0.9c-0.5,1.1-0.5,2.2-0.6,3.3c-0.1,1.4,0.6,2.5,0.7,3.8c-0.2,0.2-0.2,0.3,0,0.5l0,0c0,0.5-0.1,1,0.5,1.2l0,0
			c-0.1,0.6,0.2,1.1,0.5,1.6c0.4,0.6,1.1,1.1,1.2,1.9c0,0.4,0.1,0.6,0.5,0.7l0,0c-0.2,0.5,0.1,0.9,0.3,1.4c2,3.5,4.2,7,6.9,10
			c1.1,1.2,2.2,2.4,2.5,4.1c0.5,2.6,1.6,5,2.7,7.4c0.3,0.7,0.7,1.4,0.7,2.3c-0.6,0-0.4,0.4-0.3,0.7c0.3,0.5,0.6,1,1,1.4
			c-0.5,0.4,0.6,1.3-0.5,1.5c-0.9-2.6-1.7-5.4-3.1-7.8c-1.6-3-3.4-5.8-6.2-7.8c-0.5-0.4-1.1-0.8-1.7-1c-0.9-0.7-2-1-3-1.6
			c0-0.3-0.1-0.4-0.4-0.4c0,0,0,0,0,0c0.9-0.2,0.5-0.9,0.4-1.3c-0.4-2-1.7-3.3-3.2-4.5c0.1-0.7-0.5-1.1-0.8-1.7
			c-0.2-0.4-0.7-0.8-0.2-1.3c0.3,0.1,0.7,0.3,0.7-0.2c0.1-1.2,0-2.4,0.2-3.6c0-0.2-0.1-0.4-0.3-0.4c-0.2,0-0.3,0.2-0.4,0.4
			c-0.1,0.4,0,0.9-0.3,1.2c-0.5-0.1-0.4-0.5-0.4-0.9c0-0.9,0-1.7,0-2.6c0-1.6,0-3.1-1.6-4c0-0.4,0.1-0.7,0.1-1.1
			c0.8-0.1,0.5-0.7,0.5-1.1C250.7,208.7,250.8,206.4,251.9,204.1z"/>
		<path class="st13" d="M243.2,238c1.2,0,2.2-0.5,3.3-1c0.4-0.2,0.9-0.5,1.3,0c2.7,2.7,5.6,5.3,7.3,8.8c0.4,0.9,0.8,1.8,0.8,2.7
			c-2.8-1.3-5.6-2.2-8.6-2.8c-3.9-0.8-7.9-1.2-11.9-1.1c-0.7,0-1.4,0-1.9,0.6c-0.1,0.1-0.3,0.1-0.4,0.2c0,0-0.1,0-0.1,0l-0.1,0
			c-0.5-0.5-1-0.7-1.6-0.1l-0.1,0c0,0-0.1,0-0.1,0c-0.4-0.3-0.8-0.3-1.2,0c-0.2,0-0.5,0.1-0.7,0.1c-0.3-0.3-0.7-0.2-1-0.1
			c-1.3,0.3-2.5,0.7-3.7,1.2c-4.1,1.9-7,5-9.7,8.5c-0.4,0.6-0.8,1.3-1.5,1.7c1-5.3,3.2-10,7-14c0.3-0.3,0.6-0.6,1-0.9
			c1.1,0.1,2.1,0.4,3,1.1c0.4,0.3,0.9,0.5,1.4,0.5c3.5,0.5,6.9,0.2,10.1-1.2C238.3,241.1,240.8,239.6,243.2,238z"/>
		<path class="st6" d="M242,304.7C242,304.7,242,304.8,242,304.7c-0.4,0-0.4,0.3-0.5,0.5c-0.2,0.2-0.4,0.3-0.3,0.6c0,0,0,0,0,0
			c-1,0.1-1.7,0.6-2.5,1.1c-3.7,1.4-6.7,3.9-9.7,6.3c-4.1,3.2-8.2,6.5-12.3,9.7c-1.1,0.9-1.9,2-3.1,3.1c-0.1-1.4-0.1-2.6-0.2-3.7
			c0.5-0.1,0.7-0.6,0.9-0.9c1-1.8,2.3-3.3,3.7-4.8c6.5-6.7,13.9-12.3,21.1-18.3c1,1.7,1.4,3.7,2.2,5.5
			C241.5,304.2,241.5,304.6,242,304.7z"/>
		<path class="st8" d="M261.3,290.1c-2.1-2.8-3.7-5.9-4.5-9.3c4-3.3,7.6-7.1,11.4-10.6c0.7-0.7,1-0.5,1.4,0.3
			c1.1,2.6,2.1,5.2,2.7,7.9c-3.7,3.4-6.8,7.2-10.1,10.9C261.9,289.7,261.7,290.1,261.3,290.1z"/>
		<path class="st8" d="M271.2,280.6c0.5,2.2,1,4.3,1.5,6.5c0.3,1.4,0.5,2.9,0.5,4.4c0,4.5,0.1,8.9-0.3,13.4c0,0.3,0.1,0.7-0.3,1
			c-0.4-0.2-0.5-0.7-0.7-1.1c-2.3-4.7-4.7-9.4-7-14.2c-0.3-0.7-0.7-1.3-1.6-1.1c1.9-2.6,4.2-4.9,6.3-7.3
			C270.1,281.7,270.6,281.1,271.2,280.6z"/>
		<path class="st14" d="M290.3,205.5c-0.1-0.2-0.2-0.5-0.4-0.7c0.8-0.1,1.4,0.2,1.9,0.7c2.1,1.9,3.4,4.3,3.4,7.2
			c0,2.1,0.6,4.2,0.5,6.3c-0.1,3.2-2,5.5-3.9,7.7c-0.2,0.2-0.4,0.3-0.5,0.5c-0.3,0.3-0.9,0.6-0.6,1.2c0.3,0.6,0.8-0.2,1.2,0.1l0,0
			c-1.3,2.4-1,5-1.4,7.6c-0.2,1.1-0.6,2.1-1.2,3.1c-1.5,2.6-4.8,2.7-7,1.2c-0.3-0.2-0.7-0.4-1-0.6c0.5-0.8,1.4-1,2.1-1.5
			c2.5,0.1,4.9-2.4,4.3-4.7c-0.4-1.6-0.5-3,0.1-4.5c0,0,0,0,0,0c0.9-0.7,1.6-1.7,2.7-2c0.2-0.1,0.3-0.3,0.4-0.4c1-2,2.2-3.8,2.5-6
			c0.2-1.3,0.2-2.7,0.4-4c0.1-0.8,0.6-1.6,0.4-2.4C293.3,211,291.9,208.2,290.3,205.5z"/>
		<path class="st8" d="M239.1,298.4c-7.1,6-14.6,11.6-21.1,18.3c-1.4,1.5-2.7,3-3.7,4.8c-0.2,0.4-0.3,0.8-0.9,0.9
			c0-1.8,0.2-3.5,0.5-5.2c1.1-0.2,1.7-1.1,2.4-1.8c3.8-3.9,7.2-8,11.2-11.7c2.4-2.2,4.8-4.4,7.9-5.8c0.9-0.4,1.6-1.3,2.6-1.6
			C238.5,296.9,238.8,297.6,239.1,298.4z"/>
		<path class="st6" d="M243.2,238c-2.4,1.6-4.8,3.1-7.5,4.3c-3.2,1.4-6.6,1.7-10.1,1.2c-0.5-0.1-1-0.2-1.4-0.5c-0.9-0.7-1.9-1-3-1.1
			c0.4-0.9,1.3-0.7,2-0.8c4.2-0.6,8.4-1.4,12.4-3.1c3.3-1.4,6.4-3.1,9.2-5.2c1.2-0.9,2.7-0.5,4,0.1c0.4,0.2,0.7,0.4,1,0.7
			c0.2,0.1,0.3,0.3,0.5,0.4c0.9,0.8,1,0.8,1.4,0.1c0.1,0,0.2,0,0.3,0c-0.2,0.6,0.2,0.6,0.6,0.7c0.8,0.1,1.6,0,2.3-0.3
			c0.1,0,0.2,0,0.3,0c-0.5,1-1.3,1.6-2.5,1.5c-1-0.1-2-0.2-2.9-0.8c-1.3-0.8-2.6-1.5-4.2-1.7c-0.5-0.1-0.8,0-0.7,0.5
			C245.1,235.6,244,236.7,243.2,238z"/>
		<path class="st6" d="M233.5,245.2c0.5-0.5,1.2-0.5,1.9-0.6c4-0.2,8,0.3,11.9,1.1c3,0.6,5.9,1.5,8.6,2.8c1.5,1,3.2,1.6,4.7,2.5
			c3.4,1.9,5.7,4.8,7.6,8c0.5,0.9,1,1.9,1.8,2.6c-0.4,1-0.7,0.1-0.8-0.1c-2.1-2.4-4.4-4.6-6.9-6.7c-5.5-4.6-11.8-7.2-18.7-8.6
			c-3.3-0.7-6.7-0.8-10-0.9C233.5,245.4,233.5,245.3,233.5,245.2z"/>
		<path class="st8" d="M270.4,250.9c1.1-0.2,0-1.1,0.5-1.5c0.3,0.4,0.6,0.7,0.9,1.1c1.6,2.2,3,4.4,4.9,6.3c0.1,0.6-0.3,0.9-0.6,1.2
			c-1.1,0.7-1.8,1.7-2.5,2.7c-0.7,1-1.7,1.7-3,1.6C271.6,258.5,271,254.7,270.4,250.9z"/>
		<path class="st14" d="M219.6,240.3c1.4-0.7,3-0.9,4.5-1c4.3-0.2,8-1.6,11.4-4.1c0.4-0.3,0.9-0.6,1.4-0.9c0.5,0.1,0.9-0.3,1.3-0.5
			c1.6-0.8,3.1-1.6,4.9-2c0.4-0.1,0.8-0.4,1.1,0.1c-3.9,3.9-9,5.4-14,6.9c-2.7,0.8-5.5,1.2-8.3,1.7
			C221.1,240.6,220.3,240.7,219.6,240.3z"/>
		<path class="st14" d="M213.2,256.7c0.7-0.4,1-1.1,1.5-1.7c2.6-3.5,5.6-6.6,9.7-8.5c1.2-0.6,2.4-1,3.7-1.2c0.3-0.1,0.7-0.2,1,0.1
			c0.1,0.3-0.1,0.4-0.4,0.5c-4,0.7-6.6,3.3-9.1,6.2c-2,2.4-4.2,4.5-6.7,6.7C213,257.9,213.1,257.3,213.2,256.7z"/>
		<path class="st8" d="M217.5,255.9c0.4,0.1,0.7-0.1,0.9-0.4c1-1.2,2.3-1.8,3.8-2.3c1.2-0.4,2.1-1.3,3-2.1c1.2-1.1,2.5-1.6,4-1.9
			c-0.3,0.8-0.9,1.3-1.6,1.7c-2,1.3-4.1,2.7-6.1,4c-1.7,1.1-3.1,2.3-4.4,3.8c-0.2,0.3-0.4,0.6-0.9,0.5
			C216.6,258.1,216.1,256.7,217.5,255.9z"/>
		<path class="st8" d="M244.1,232c-0.3-0.5-0.7-0.2-1.1-0.1c-1.7,0.3-3.3,1.2-4.9,2c-0.4,0.2-0.8,0.6-1.3,0.5
			c0.1-0.4,0.4-0.4,0.7-0.6c1.1-0.8,2.4-1.4,3.2-2.6c0.5-0.6,1.3-0.8,2.1-1c2.3-0.4,4.5-0.1,6.5,1.1c0.1,0.4-0.4,0.4-0.5,0.7
			C247.3,231.4,245.7,231.5,244.1,232z"/>
		<path class="st11" d="M230.4,278.4c0.2,0.5,0.7,0.7,1.1,1.1c4.7,4.2,8.2,9.3,11.2,14.8c0.1,0.2,0.1,0.4,0,0.6
			c-3.9-6.1-7.8-12.2-13.5-16.7C229.6,278,230,278,230.4,278.4z"/>
		<path class="st14" d="M248.9,231.9c0.1-0.3,0.5-0.3,0.5-0.7c1.1-0.2,2,0.7,3.1,0.8c1.2,0,2.4,0,3.6,0.1c0.1,0,0.1,0.1,0.1,0.1
			c0,0,0,0,0,0c-0.1,0.3-0.2,0.6-0.3,0.9c-0.3,0.2-0.6,0.4-0.9,0.6c-1,0.3-1.9,0.3-2.9,0.2c-0.1,0-0.2,0-0.3,0
			c-0.3-0.2-0.7-0.3-1-0.5c-0.3-0.2-0.5-0.5-0.8-0.7C249.5,232.5,249.2,232.2,248.9,231.9z"/>
		<path class="st9" d="M256.4,232.7c1,0.5,2.1,0.9,3,1.6c0,0.2,0,0.4,0,0.6c-1.1-0.4-1.9-1.3-3.1-1.4
			C256.4,233.2,256.4,232.9,256.4,232.7z"/>
		<path class="st11" d="M224,285.2c-0.1-0.3-0.3-0.3-0.6-0.3c0.6-0.3,1.1-0.9,1.8-0.6c-0.2,0.3-0.3,0.7-0.7,0.9
			C224.4,285.2,224.2,285.2,224,285.2z"/>
		<path class="st14" d="M231.2,245.3c0.6-0.6,1.1-0.3,1.6,0.1C232.3,245.6,231.7,245.8,231.2,245.3z"/>
		<path class="st8" d="M263.3,289.5c-0.1,0.9-0.3,1.7-1.5,1.6C262.2,290.6,262.6,289.9,263.3,289.5z"/>
		<path class="st14" d="M229.8,245.3c0.4-0.3,0.8-0.3,1.2,0C230.6,245.8,230.2,245.8,229.8,245.3z"/>
		<path class="st9" d="M249.9,232.8c0.3,0.2,0.5,0.5,0.8,0.7c-0.1,0.1-0.3,0.3-0.4,0.4c-0.2-0.1-0.3-0.3-0.5-0.4
			C249.8,233.3,249.8,233.1,249.9,232.8z"/>
		<path class="st11" d="M228.2,278.2c-0.3,0.3-0.4,0.1-0.5-0.2C227.9,278,228.1,278,228.2,278.2z"/>
		<path class="st14" d="M233.5,245.2c0,0.1,0,0.2,0.1,0.3c-0.2,0.1-0.4,0.1-0.5-0.1C233.2,245.3,233.3,245.3,233.5,245.2z"/>
		<path class="st14" d="M272.1,265.4c0.1,0,0.2,0,0.3-0.1c0,0.1,0,0.2,0,0.3C272.2,265.6,272.2,265.5,272.1,265.4z"/>
		<path class="st0" d="M215.4,257.9C215.5,257.9,215.5,257.9,215.4,257.9c0,0.1,0,0.1-0.1,0.2c0,0-0.1,0-0.1-0.1
			C215.3,257.9,215.4,257.9,215.4,257.9z"/>
		<path class="st14" d="M291.9,228.6c0,0,0-0.1,0.1-0.1C291.9,228.5,291.9,228.5,291.9,228.6C291.9,228.5,291.9,228.5,291.9,228.6
			C291.8,228.6,291.9,228.6,291.9,228.6z"/>
		<path class="st8" d="M243.8,335.1c-0.6,0-1.1,0-1.7,0c0.1-1.5,0.2-3,0.2-4.5c0.3-6.9-0.5-13.7-0.8-20.5c0-1,0.2-2.2-0.5-3.1
			c0-0.2,0-0.5,0-0.7c0-0.1,0.1-0.3,0.1-0.4c0,0,0,0,0,0c0.2,0,0.3-0.1,0.5-0.1c0.2,0,0.3,0.1,0.5,0.1c1.5,0.9,3,0.8,4.5,0.3
			c-0.5,0.8-0.5,1.7-0.5,2.6c0,4.7-0.4,9.3-0.9,13.9c-0.4,3.7-0.7,7.4-1.3,11.1C244,334.2,243.9,334.7,243.8,335.1z"/>
		<path class="st13" d="M280.3,196.7c-0.6-4.5-3.4-8-5.5-11.8c-0.7-1.3-1.5-2.5-2.2-3.7c-0.4-0.6-0.4-1.2,0-1.9
			c1.7-2.9,2.9-6,4.2-9.1c0.2-0.6,0.4-1.1-0.1-1.7c0-0.2-0.1-0.3-0.1-0.5c0-0.1,0-0.2,0-0.4c-0.3-1.2-1-1.5-2.3-0.9
			c-1.4,0.8-2.9,1.4-4.3,2c-0.8,0.3-1.5,0.7-2.1,1.3c-1.6,1.6-3.4,2.1-5.7,1.6c-1-0.2-2-0.4-3,0.3c-1.2-0.1-2.3-0.3-3.4-0.6
			c-1.5-0.4-3-0.3-4.5-0.1c-2,0.3-3.9,0.8-5.8,1.4c-1.6,0.5-3.2,0.4-4.7,0.3c-0.9-0.1-1.6-0.4-2-1.3c-0.4-0.7-0.9-1.3-1.3-2
			c-1-1.8-0.8-2.5,1-3.8c2.6-1.8,5.6-2.6,8.7-3.3c3.7-0.9,7.6-1.2,11.4-1.7c3.1-0.4,6.1-1.1,8.9-2.7c0.7-0.4,1.5-0.3,2.2-0.3
			c0.7,0.2,1.5,0.1,2.2,0.6c0.9,0.8,2.1,1.1,3.1,1.7c2.2,1.4,4.7,2.6,4.8,5.8c0,1.3,0.9,2.5,0.9,3.9c-0.9,2.2-1.8,4.4-3,6.4
			c-1.2,2-0.9,3.9,1,5.6c0.1,0.1,0.1,0.3,0.3,0.2l0,0c-0.1,0.6,0.5,0.9,0.5,1.4c-0.4,0.1-0.2,0.5-0.5,0.7c-0.3-0.3-0.4-0.7-1-0.9
			c0.3,0.8,0.6,1.4,1.2,1.9c0.2,0.5,0.5,0.9,0.7,1.4c-0.4,0.8,0.5,1.6,0.1,2.4c-0.9-1.5-1.8-3.1-2.7-4.6c-0.3-0.4-0.5-1.3-1-1
			c-0.4,0.2,0.2,0.9,0.5,1.4c1.5,2.6,3.1,5.2,4.4,7.9c-0.4,0.5-0.1,1.2-0.2,1.7C280.5,195.3,280.9,196,280.3,196.7z"/>
		<path class="st8" d="M265.4,201.2c2-0.4,4-0.5,6,0.1c1,0.3,2,0.6,3,0.4c0.9,0.4,2,0.5,2.7,1.4c0.1,0.2,0.3,0.2,0.5,0
			c0.2-0.2,0.1-0.4,0-0.5c-2-2.7-3.2-6-6-8.2c0.1-2.3,1.7-3.7,2.9-5.4c0.3-0.4,0.7-0.8,1.3-0.7c1.7,2.5,3.1,5.2,3.6,8.3
			c0.6,4.3,1.1,8.5,0.4,12.9c-0.2,0-0.4-0.1-0.5-0.3c-1.2-2.1-3.1-3.5-4.8-5.1c-1.2-1.2-2.9-1.7-4.5-2.2c-0.2-0.1-0.7,0.1-0.8,0.2
			c-0.3,1.3-0.8,0.2-1.3,0.2C267.4,201.6,266.3,201.6,265.4,201.2z"/>
		<path class="st14" d="M280.4,170c0-1.4-0.8-2.6-0.9-3.9c-0.1-3.3-2.6-4.4-4.8-5.8c-1-0.7-2.2-1-3.1-1.7c-0.6-0.5-1.4-0.4-2.2-0.6
			c0.2-0.5,0.7-0.3,1-0.3c2.3-0.2,4.5,0.2,6.7,0.6c0.6,0.1,0.8,0.5,1,0.9c1.2,2.2,2.5,4.5,4.1,6.3c2.6,3,2.9,6.4,2.8,10.1
			c0,1.5,0.2,2.9,0.8,4.2c0.7,1.7,0.6,3.3,0,5c-1.5-1.7-2.7-3.7-4.3-5.3c0.6-1.7,1.3-3.4,0.4-5.2c-0.3-0.7-0.4-1.5-0.6-2.2
			C281,171.3,281,170.5,280.4,170z"/>
		<path class="st14" d="M236.9,206c-0.9-0.4-1.9-0.2-2.9-0.3c0-0.6,0.1-1.2,0.1-1.8c0.5-0.6,1.2-0.5,1.9-0.6c0.3,0,0.8,0.1,0.6-0.5
			c-0.5-1.5-2.4-2.9-4-2.5c-1.5,0.3-3,0.8-4.5,1.2c-0.1-0.1-0.3-0.2-0.4-0.3c-0.3-0.9,0.1-1.3,0.9-1.6c0.9-0.3,1.8-0.7,2.7-1.1
			c0.3-0.1,0.9-0.2,0.6-0.8l0,0.1c0.3,0.3,0.5,0.2,0.5-0.2c0,0,0,0,0,0c0.2,0.2,0.3,0.1,0.5,0.1c2.2,0,6,3.4,6,5.5
			c0.7-0.1,1.1-0.7,1.6-1c0.6,1,0.1,2,0.3,3c-0.9,0.2-0.7,0.8-0.6,1.4c0.1,0.6,0.2,1.2-0.1,1.8c-0.2,0-0.4-0.1-0.5-0.2
			C238.9,207.1,238.2,206.1,236.9,206z"/>
		<path class="st13" d="M231.8,197.7c-1.5,0.3-2.9,0.7-4.1,1.7c-0.7-0.9,0.7-1.3,0.3-2.1c0,0,0,0,0,0c0.1,0,0.2,0,0.3,0
			c0-0.1,0-0.2,0-0.3c0,0,0,0,0,0c0.1,0.1,0.2,0.2,0.3,0.1c0.3-0.2,0.6-0.4,0.8-0.7c1.9-1.8,4-2.7,6.6-1.5c1,0.4,2.1,0.8,3.1,1.3
			c0.9,0.4,1.4,0.9,1.1,2c-0.2,0.8-0.2,1.6-0.4,2.5c-0.2,0-0.5,0-0.7-0.1c-0.3-0.9-0.8-1.6-1.4-2.3c-0.4-0.4-0.8-1.1-1.6-0.7
			c-0.3-0.1-0.7-0.3-1-0.4c-0.9-0.1-1.7-0.7-2.6,0c-0.1,0-0.3,0-0.2,0.2c0,0,0,0,0,0C232.1,197.5,231.9,197.4,231.8,197.7
			L231.8,197.7z"/>
		<path class="st8" d="M271.4,180.3c-1,0-0.9-0.8-0.9-1.4c0.1-2-0.2-4-0.5-5.9c0-0.2-0.2-0.3-0.3-0.5c1.5-0.9,2.8-2.1,4.6-2.5
			c0.8-0.2,1.5-0.4,2.1-0.9c-1.4,3.4-2.8,6.7-4.5,9.9C271.7,179.4,271.3,179.8,271.4,180.3z"/>
		<path class="st6" d="M280.3,196.7c0.6-0.7,0.2-1.4,0.3-2.2c0.1-0.6-0.1-1.2,0.2-1.7c0.8,0.9,1,2.1,1.9,2.9
			c0.3,0.5,0.2,1.2,0.2,1.8c-0.1,2.6-0.2,5.2,0.5,7.7c0.1,0.2,0.1,0.4,0.2,0.6c0.6,1.9,0.6,1.9-1,3.2c-0.1-0.5-0.3-1-0.4-1.5
			c-0.2-1.1-0.6-2.2-1.2-3.1C280.8,201.8,280.7,199.2,280.3,196.7z"/>
		<path class="st14" d="M285.5,185.1c0.3,1.3-0.4,2.5-0.6,3.7c-0.2,1-0.6,1.9-0.9,2.8c-0.5-0.1-0.8-0.6-0.6-0.8
			c0.7-1.1-0.3-1.8-0.6-2.6c-0.4-1-1.1-1.8-1.6-2.7c0.5-0.7,0.1-1.5,0.2-2.2c0.1-0.8-0.2-1.7,0.3-2.4c0.6,0.1,0.9,0.7,1.3,1.1
			C283.8,182.9,284.6,184,285.5,185.1z"/>
		<path class="st6" d="M259.1,172c0.9-0.7,2-0.4,3-0.3c2.2,0.5,4.1,0,5.7-1.6c0.6-0.6,1.4-1,2.1-1.3c1.5-0.6,2.9-1.2,4.3-2
			c1.3-0.7,2-0.4,2.3,0.9c-0.9-0.2-1.7,0.1-2.5,0.5c-2.1,1.2-4.1,2.3-6.2,3.4c-1.9,1.1-4,1.4-6.1,0.9
			C260.9,172.4,259.9,172.7,259.1,172z"/>
		<path class="st4" d="M281,185.4c0.5,0.9,1.2,1.8,1.6,2.7c0.4,0.8,1.4,1.5,0.6,2.6c-0.1,0.2,0.1,0.8,0.6,0.8c0,0.3-0.2,0.5-0.5,0.5
			c-0.6-0.4-0.6-1.2-1.3-1.4c-0.6-1.5-1.5-2.7-2.6-3.8c-0.2-0.5-0.5-0.9-0.7-1.4c0.1-0.1,0.2-0.2,0.3-0.3c0.6,0.9,1.3,1.8,1.9,2.6
			c0.4,0.6,0.8,1.2,1.2,1.8c0-0.8-0.3-1.5-0.8-2c-0.6-1.4-1.3-2.7-2.3-3.8c-0.1-0.5-0.6-0.8-0.5-1.4c0.5-0.1,0.6,0.4,0.8,0.7
			C280,183.8,280.5,184.6,281,185.4z"/>
		<path class="st11" d="M282.7,195.7c-0.9-0.8-1.1-2-1.9-2.9c-1.4-2.7-2.9-5.3-4.4-7.9c-0.2-0.4-0.9-1.1-0.5-1.4
			c0.5-0.3,0.7,0.6,1,1c1,1.5,1.8,3.1,2.7,4.6c0.6,1,1.1,2.1,1.7,3.1c0.5,0.9,0.9,1.9,1.6,2.7C282.9,195.2,282.8,195.5,282.7,195.7z
			"/>
		<path class="st14" d="M276.4,169.1c-0.6,0.5-1.3,0.7-2.1,0.9c-1.7,0.4-3.1,1.6-4.6,2.5c-1,0.4-1.8,1.5-3.1,0.8
			c2.4-1.3,4.8-2.6,7.1-4c0,0,0,0,0,0c0.9-0.4,1.8-1.1,2.8-1.2c0,0.2,0.1,0.3,0.1,0.5C276.6,168.8,276.5,168.9,276.4,169.1z"/>
		<path class="st8" d="M280.9,204.4c0.6,0.9,1,2,1.2,3.1c0.1,0.5,0.3,1,0.4,1.5c-0.5,0.6-1,1.2-1.5,1.7c-0.1-0.1-0.2-0.1-0.3-0.2
			C280.9,208.5,280.9,206.4,280.9,204.4z"/>
		<path class="st14" d="M283,195c-0.8-0.7-1.1-1.8-1.6-2.7c0.6-0.4,0.1-1.3,0.8-1.6c0.7,0.2,0.8,1.1,1.3,1.4
			C283.6,193.1,283.1,194,283,195z"/>
		<path class="st4" d="M285.5,185.1c-0.8-1.1-1.7-2.2-2.6-3.2c-0.4-0.4-0.7-1-1.3-1.1c0-0.5-0.3-0.8-0.6-1.1c-0.4-0.4-1-0.7-1-1.4
			c0,0,0.1-0.1,0.1-0.1c0.5,0.4,0.9,0.8,1.4,1.2c1.6,1.6,2.8,3.6,4.3,5.3C285.8,184.9,285.7,185.1,285.5,185.1z"/>
		<path class="st6" d="M280.8,210.5c0.1,0.1,0.2,0.1,0.3,0.2c-0.1,0.1-0.2,0.2-0.2,0.2C280.8,210.8,280.8,210.7,280.8,210.5z"/>
		<path class="st6" d="M273.7,169.3C273.7,169.3,273.7,169.3,273.7,169.3C273.6,169.1,273.7,169.3,273.7,169.3z"/>
		<path class="st11" d="M227.3,197.5c0,0.1,0.1,0.1,0.1,0.2C227.4,197.6,227.3,197.5,227.3,197.5z"/>
		<path class="st13" d="M160.1,177c0.1-0.7,0.1-1.7,1.1-2.2c0.5-0.2,1.5,1,1.7,2c0.3,1.4-0.6,2.7-2.1,3.1c-0.5,0.1-0.4-0.2-0.5-0.4
			C160.3,178.8,160.2,178,160.1,177z"/>
		<path class="st13" d="M140.5,206.4c-0.2,1.4-1.4,1.8-2.5,2.3c-0.4,0.2-0.9,0.5-1.2,0.2c-0.3-0.3-0.1-0.8,0-1.2
			c0.2-0.7,0.4-1.4,0.8-2.1c0.3-0.6,0.6-1.4,1.4-1.2C139.9,204.6,140.4,205.3,140.5,206.4z"/>
		<path class="st0" d="M241.1,306.9c0.7,1,0.4,2.1,0.5,3.1c0.3,6.8,1.1,13.7,0.8,20.5c-0.1,1.5-0.2,3-0.2,4.5
			c-0.8,0-1.6-0.1-2.4-0.1c-0.3-1.2,0.6-0.7,1.4-0.7c-3.5-4.4-6.2-9-7.9-14.1c0-0.1,0-0.2-0.1-0.4c-0.1-0.1-0.1-0.2-0.2-0.4
			c0-0.1,0-0.2,0-0.3l0-0.1c0,0,0-0.1,0-0.1c0-0.5,0-1.1-0.6-1.4c-0.1-0.6-0.7-1.1-0.4-1.7c0-0.3,0-0.6-0.4-0.6
			c-0.1-0.6-0.3-1.2-0.5-1.7c-0.2-0.7,0.6-0.9,0.7-1.4c1-0.6,1.7-1.6,2.9-1.9C236.6,310.5,239.9,308.8,241.1,306.9z"/>
		<path class="st6" d="M241.1,306.9c-1.2,1.9-4.5,3.6-6.4,3.2c1.2-1.3,2.8-2,4.3-2.9c0.7-0.3,1.4-0.7,2.1-1
			C241.1,306.5,241.1,306.7,241.1,306.9z"/>
		<path class="st11" d="M241.1,306.2c-0.7,0.3-1.4,0.7-2.1,1c-0.1-0.1-0.2-0.2-0.3-0.3c0.8-0.5,1.5-1,2.5-1.1
			C241.2,306,241.1,306.1,241.1,306.2z"/>
		<path class="st13" d="M174.4,178.5c0,0.8-1.8,2.5-2.6,2.3c-0.5-0.1-0.8-0.6-0.9-1.2c-0.1-1.3,0.2-2.6,0.7-3.8
			c0.1-0.3,0.2-0.4,0.6-0.3C173.1,175.9,174.4,177.6,174.4,178.5z"/>
		<path class="st13" d="M141.4,179c0.1-1,0.3-2,0.6-2.9c0.3-0.7,0.6-0.7,1.1-0.3c0.4,0.3,0.7,0.6,1,1c0.5,0.7,1,1.4,0.6,2.3
			c-0.4,1-1.4,1.5-2.3,1.6C141.5,180.8,141.4,179.7,141.4,179z"/>
		<path class="st13" d="M160.3,205.3c-0.4-0.2-1,0.2-0.9-0.3c0.1-0.6,0.6-1.1,1.3-1.1c0.5,0,1.4,0.2,1.3,0.8
			C161.8,205.5,160.8,205,160.3,205.3z"/>
		<path class="st7" d="M242.2,305.8c-0.2,0-0.3-0.1-0.5-0.1c-0.1-0.2-0.1-0.3-0.2-0.5c0.1-0.3,0.1-0.5,0.5-0.5
			c0.2,0.2,0.3,0.4,0.5,0.6C242.2,305.4,242.2,305.6,242.2,305.8z"/>
		<path class="st12" d="M232.4,317.6c0.5,0.3,0.6,0.9,0.6,1.4C232.5,318.6,232.4,318.1,232.4,317.6z"/>
		<path class="st12" d="M231.7,315.2c0.4,0.1,0.4,0.3,0.4,0.6C231.8,315.7,231.5,315.6,231.7,315.2z"/>
		<path class="st12" d="M233,319.1c0,0.1,0,0.2,0,0.3C232.7,319.4,232.9,319.3,233,319.1z"/>
		<path class="st12" d="M233.2,319.8c0,0.1,0,0.2,0.1,0.4C233,320.1,233.1,320,233.2,319.8z"/>
		<path class="st8" d="M228,201.4c1.5-0.4,3-0.9,4.5-1.2c1.6-0.3,3.5,1,4,2.5c0.2,0.7-0.2,0.5-0.6,0.5c-0.7,0-1.4-0.1-1.9,0.6
			c-0.4-0.4-0.8-0.2-1.3,0c-0.8,0.3-1.1,1-1.8,1.3c-0.1-0.1-0.1-0.1-0.2-0.2c0.1-0.5,0-0.7-0.5-0.5c-0.5,0.2-0.9,0.1-1.4,0
			C228.4,203.5,228.4,202.4,228,201.4z"/>
		<path class="st13" d="M227.4,213.7c0.8-1.4,1.3-3,2.3-4.4c1.9,1,3.9,1.2,6,1c0.7-0.1,1.2-0.8,2-0.7c0,0.4-0.3,0.5-0.6,0.7
			c-1.2,0.7-2.5,1.2-3.6,2c-1.4,0.9-3.1,1-4.6,1.7c-0.2,0-0.3,0-0.5,0C228,213.6,227.7,213.7,227.4,213.7z"/>
		<path class="st8" d="M227.4,213.7c0.3,0,0.6-0.1,0.9,0.2c-0.2,0.7,0.5,0.6,0.8,0.9c-0.4,0.6-0.3,0.9,0.4,1c0.3,0,0.6-0.1,0.9,0.2
			c-2.5,1.7-5,3.3-6.8,5.8c0,0,0,0,0,0c-0.5-0.5-0.1-0.9,0.1-1.3C224.8,218.2,226,215.9,227.4,213.7z"/>
		<path class="st13" d="M231,205.1c0.7-0.3,1.1-1,1.8-1.3c0.5-0.2,0.8-0.3,1.3,0c0,0.6-0.1,1.2-0.1,1.8c-1.5,0.5-3,1.2-4.4,2.1
			c-0.2-1.1-0.6-2.2-0.7-3.3c0.5,0.1,0.9,0.1,1.4,0c0.5-0.2,0.6,0.1,0.5,0.5c0,0.1-0.1,0.2-0.1,0.3
			C230.8,205.2,230.9,205.2,231,205.1z"/>
		<path class="st4" d="M237.6,209.6c-0.8-0.1-1.3,0.6-2,0.7c-2.1,0.2-4.1,0-6-1c0-0.1,0-0.2,0-0.2c0.1,0,0.2,0,0.3-0.2
			c1.4,0.2,2.7,0.9,4.1,0.7c1.7,0.3,3.1-0.3,4.5-1.1c0.3,0,0.6,0,0.9-0.3c0.1,0.2,0.3,0.2,0.5,0.2c0,0.2,0,0.4,0,0.6
			c0.1,0.4-0.1,0.6-0.4,0.8c-0.4-0.1-0.7,0.1-1,0.2C238.6,209.3,238.3,209.1,237.6,209.6z"/>
		<path class="st13" d="M238.6,208.4c-1.4,0.8-2.9,1.4-4.5,1.1c0-0.1,0-0.1,0-0.2c0.7-0.3,1.4-0.4,2-0.8c0.7-0.4,1.2-0.9,0.7-1.9
			C237.6,207,238.3,207.5,238.6,208.4z"/>
		<path class="st8" d="M234,209.3c0,0.1,0,0.1,0,0.2c-1.4,0.2-2.7-0.5-4.1-0.7c-0.1,0-0.2,0-0.2,0c0.3-0.9,1.3-1,2-1.4
			c0.2-0.1,0.3,0.1,0.4,0.3C232.2,208.9,233,209.3,234,209.3z"/>
		<path class="st13" d="M235.6,207c0,1-0.8,1-1.4,1.2c-0.9,0.2-1-0.8-1.1-1.1c-0.1-0.7,0.7-0.6,1.2-0.7
			C234.5,207.2,235,207.2,235.6,207z"/>
		<path class="st11" d="M238.6,208.4c-0.3-0.9-1-1.4-1.8-1.7c-0.3-0.2-0.3-0.2,0.1-0.7c1.3,0.1,2,1.1,2.6,2.1
			C239.2,208.4,238.9,208.4,238.6,208.4z"/>
		<path class="st4" d="M235.6,207c-0.6,0.1-1.1,0.1-1.3-0.6C234.9,206.3,235.7,205.7,235.6,207z"/>
		<path class="st9" d="M229.7,208.9c0.1,0,0.2,0,0.2,0c0,0.1-0.1,0.2-0.3,0.2C229.7,209,229.7,208.9,229.7,208.9z"/>
		<path class="st8" d="M239.6,209.9c0.3-0.2,0.6-0.4,0.4-0.8c0.6-0.2,0.8-0.8,0.8-1.3c0-0.8,0-1.7,0-2.5c-0.1-1,0.3-2-0.3-3
			c0.1-1.8,0.4-3.5,0.3-5.3c1-0.1,1.6,0.5,2.4,0.9c0.2,0.1,0.3,0.3,0.3,0.6c-0.5,3-0.4,6-0.9,9c-0.2,1-0.8,1.3-1.4,1.7
			c-0.1,0.1-0.2,0.2-0.3,0.3c0.3,0.5,0.7-0.2,1,0.3c-0.6,0.8-1.5,1.1-2.3,1.4c-0.1-0.4-0.5-0.1-0.6-0.3
			C239.1,210.4,239.3,210.1,239.6,209.9z"/>
		<path class="st11" d="M271.7,194.5c2.7,2.2,4,5.4,6,8.2c0.1,0.2,0.2,0.4,0,0.5c-0.2,0.2-0.4,0.1-0.5,0c-0.7-0.9-1.8-1-2.7-1.4
			c-2.3-1.6-4.7-2.8-7.6-2.9c-0.3,0-0.6-0.1-0.9-0.1c0-0.1,0-0.3,0-0.4c1.9-0.4,3.6,0.1,5.3,0.9c1.2,0.6,2.4,1.2,3.6,1.8
			c0.2,0.1,0.4,0.3,0.6,0c0.1-0.1,0-0.4,0-0.4c-0.9-0.7-0.9-2-1.8-2.8c-0.3-0.3-0.6-0.6-0.8-0.9c-1-1.8-2.6-2.8-4.4-3.4
			c-1.8-0.7-3.7-1.5-5.6-0.3c-0.1,0.1-0.2,0-0.4,0c0-0.2-0.1-0.3-0.1-0.5c2.9-1.5,5.4-0.2,8,0.9
			C270.9,193.9,271.3,194.2,271.7,194.5z M276,201.6L276,201.6L276,201.6L276,201.6z"/>
		<path class="st8" d="M252.2,223.5c-0.5,0.5,0,0.9,0.2,1.3c0.3,0.5,0.8,1,0.8,1.7c-0.8-0.3-1.6-0.5-2.4-0.8c-0.7-3-0.8-6.1-0.9-9.2
			c0-1-0.4-2.1,0.2-3.1c1.5,1,1.6,2.5,1.6,4c0,0.9,0,1.7,0,2.6c0,0.3-0.1,0.7,0.4,0.9C252.2,221.8,252.2,222.6,252.2,223.5z"/>
		<path class="st11" d="M240.8,196.9c0.1,1.8-0.3,3.5-0.3,5.3c-0.6,0.3-0.9,0.8-1.6,1c-0.1-2.1-3.8-5.5-6-5.5
			c-0.1-0.1-0.2-0.2-0.3-0.3c0.8-0.7,1.7-0.2,2.6,0c0.3,0.1,0.7,0.3,1,0.4c0.7,1.2,1.7,2.2,2.7,3.1c0.2,0.5,0.4,1,1.1,1.3
			c0-0.6,0-1,0-1.4c0.1-0.8,0.2-1.7,0.4-2.5c0.3-1.1-0.2-1.6-1.1-2c-1-0.4-2.1-0.8-3.1-1.3c-2.6-1.2-4.7-0.3-6.6,1.5
			c-0.3,0.2-0.5,0.5-0.8,0.7c-0.1-0.1-0.3-0.2-0.4-0.4c1.1-1.6,3-2,4.4-3.1c0.1-0.1,0.4-0.1,0.6,0
			C235.9,194.2,238.6,195,240.8,196.9z"/>
		<path class="st9" d="M265.9,198.3c0,0.1,0,0.3,0,0.4c-3.2,1.2-6.5,2.2-9.2,4.3c-0.7,0.6-1.9,0.2-2.2-0.7c-0.1-0.4-0.2-0.9-0.2-1.3
			c-0.1-0.9-0.2-1.9-0.3-2.8c-0.2-2.1-0.1-2.4,1.9-3.2c2.1-0.9,4.3-1.6,6.6-2.1c0,0.2,0.1,0.3,0.1,0.5c-0.4,0.1-0.7,0.3-1.1,0.4
			c-2.2,0.6-4.3,1.2-6.2,2.7c-0.4,0.3-0.6,0.5-0.5,0.9c0.2,1.4,0.1,2.9,0.5,4.3c0.3,1.1,0.5,1.2,1.5,0.5
			C259.5,200,262.6,199,265.9,198.3z"/>
		<path class="st11" d="M239.6,209.9c-0.2,0.3-0.5,0.6-0.7,0.9c0.1,0.2,0.6-0.1,0.6,0.3c-1.4,1.3-3.1,2.2-4.8,3.1
			c-3.7,2.3-7.3,4.7-10.6,7.6c-0.2,0.1-0.3,0.4-0.6,0.1c1.8-2.5,4.3-4.1,6.8-5.8c0.5-0.3,1-0.6,1.7-1c-1.2-0.1-2.1-0.1-3-0.2
			c-0.3-0.3-1-0.2-0.8-0.9c0.2,0,0.3,0,0.5,0c1.7,0.5,3.5,0.5,5-0.1c1.8-0.7,4-1.5,4.9-3.7C238.9,209.9,239.2,209.7,239.6,209.9z"/>
		<path class="st8" d="M256,232.1c-1.2,0-2.4,0-3.6-0.1c-0.1-1.6-0.5-3.2-1.4-4.6c-0.2-0.4-0.6-0.7-0.4-1.2
			C253.6,226.7,255.8,229.1,256,232.1z"/>
		<path class="st4" d="M256.5,184.3c-0.4,0-0.8,0-1.2,0c-1.4-0.4-3-0.5-4.4-0.7c-0.5-0.3-1-0.3-1.5-0.4c-1.7-0.2-3.4,0.2-5.1,0.5
			c-0.1,0-0.3-0.1-0.4-0.1c0-0.1,0.1-0.1,0-0.2c2-0.5,3.9-0.8,6-0.7c2.5,0.1,5,0.7,7.5,0.4c0.6-0.1,1.3-0.1,1.9-0.3
			c1-0.4,2-0.2,3,0.1c-1.7-0.2-3.2,0.8-4.9,0.9C257.1,183.9,256.7,183.8,256.5,184.3z"/>
		<path class="st6" d="M260.4,179.8c-0.1,0-0.3,0-0.4,0c-0.1-0.5-0.4-0.5-0.8-0.3c-1.7-0.1-3.3,0.1-5,0c-2.7-0.1-5.5,0.1-8.3-0.8
			c0.5-0.4,0.9-0.3,1.3-0.1c2.2,0.7,4.3,0.6,6.3-0.6c0.4-0.2,0.9-0.4,1.4-0.2c0,0,0,0.1,0,0.1c-0.3,0.1-0.7,0.1-0.8,0.6
			c1.9,0,3.8,0,5.7,0l0.1,0C260.2,178.8,260.5,179.2,260.4,179.8z M253.5,178.4c-0.1,0-0.1,0.1-0.2,0.1c0,0,0.1,0.1,0.1,0.1
			C253.5,178.6,253.5,178.5,253.5,178.4C253.6,178.5,253.5,178.5,253.5,178.4z"/>
		<path class="st6" d="M261.2,188.8c-1.4,1.1-3,1.8-4.8,1.7c-1.2,0-2.5,0-3.7,0.5c-0.5,0.2-1,0.1-1.5-0.3c0-0.1,0.1-0.2,0.1-0.2
			C254.5,189.5,257.7,188.3,261.2,188.8z"/>
		<path class="st11" d="M261.2,188.8c-3.5-0.4-6.6,0.7-9.8,1.8c-0.1,0-0.1,0.1-0.1,0.2c-0.6,0.1-1.1-0.2-1.6-0.4c0-0.1,0-0.3,0-0.4
			c0.2,0,0.5,0,0.7,0.1c1.6,0,3.1-0.7,4.6-1.3c2.2-0.4,4.3-0.8,6.5-0.2c0.1,0,0.4-0.1,0.2,0.2C261.6,188.8,261.3,188.7,261.2,188.8z
			"/>
		<path class="st9" d="M256,232.1c-0.2-3-2.4-5.4-5.3-5.9c-0.2-0.1-0.5-0.2-0.7-0.3c0-0.1-0.1-0.3-0.1-0.4c0.3,0,0.6,0,1,0.1
			c0.8,0.3,1.6,0.5,2.4,0.8c1.5,1.2,2.8,2.6,3.2,4.5c0.1,0.4,0.5,1.1-0.4,1.3C256.1,232.2,256,232.2,256,232.1z"/>
		<path class="st8" d="M244.3,183.7c1.7-0.3,3.4-0.7,5.1-0.5c0.5,0,1,0.1,1.5,0.4c0,0.3,0.3,0.3,0.4,0.5c-2,0.2-4.1-0.1-6.1,0.5
			C244.6,184.8,244.3,184.4,244.3,183.7z"/>
		<path class="st6" d="M256.5,184.3c0.1-0.5,0.5-0.4,0.9-0.4c1.7-0.2,3.2-1.1,4.9-0.9c0.4,0,1,0.1,0.7,0.5c-0.3,0.4-0.7,1.3-1.4,0.9
			c-1.1-0.6-2.2-0.3-3.3,0C257.7,184.5,257.1,184.5,256.5,184.3z"/>
		<path class="st14" d="M249.6,189.9c0,0.1,0,0.3,0,0.4c-2.9-0.8-5.9-1.4-8.9-1.3C243.8,188.4,246.7,188.8,249.6,189.9z"/>
		<path class="st4" d="M251.9,204.1c-1,2.2-1.1,4.6-1.1,7c0,0.4,0.3,1-0.5,1.1c-0.2-2.9-0.2-5.8,1.3-8.4c0.1,0,0.2,0,0.4,0
			C251.9,204,251.9,204.1,251.9,204.1z"/>
		<path class="st14" d="M254.9,177.9c0,0,0-0.1,0-0.1c1.5-0.3,3-0.3,4.6-0.1c1,0.1,1.8,0.5,2.6,1.1c-0.2,0.3-0.4,0.2-0.7,0.3
			c-0.4-0.5-1-0.5-1.5-0.6c0,0-0.1,0-0.1,0C258.2,177.6,256.5,178.2,254.9,177.9z"/>
		<path class="st14" d="M240.2,179.9c1.5-1.2,3.3-1.4,5.2-1.3C243.6,179,241.9,179.4,240.2,179.9z"/>
		<path class="st14" d="M254.9,188.7c-1.5,0.6-2.9,1.3-4.6,1.3C251.7,189,253.3,188.8,254.9,188.7z"/>
		<path class="st6" d="M251.3,184.1c-0.1-0.2-0.4-0.2-0.4-0.5c1.5,0.2,3,0.3,4.4,0.7C254,184.7,252.6,184.3,251.3,184.1z"/>
		<path class="st8" d="M259.8,178.4c0.6,0.1,1.1,0.1,1.5,0.6c0,0.7-0.4,0.8-1,0.8C260.5,179.2,260.2,178.8,259.8,178.4z"/>
		<path class="st14" d="M249.8,225.6c0,0.1,0.1,0.3,0.1,0.4c-0.6,0-1.2,0-1.9-0.5C248.7,225.4,249.3,225.3,249.8,225.6z"/>
		<path class="st8" d="M259.1,179.5c0.4-0.1,0.7-0.1,0.8,0.3C259.6,179.9,259.3,179.8,259.1,179.5z"/>
		<path class="st8" d="M243.9,183.5c0,0.1,0,0.1,0,0.2c-0.1,0.1-0.2,0.1-0.2,0.2c0-0.1-0.1-0.2-0.1-0.3
			C243.6,183.5,243.7,183.5,243.9,183.5z"/>
		<path class="st6" d="M251.9,203.9c-0.1,0-0.2,0-0.4,0c0-0.2,0.1-0.5,0.4-0.3C252.1,203.6,252,203.8,251.9,203.9z"/>
		<path class="st9" d="M228.1,196.8c0.1,0.1,0.3,0.2,0.4,0.4c-0.1,0.1-0.2,0-0.3-0.1c0-0.1-0.1-0.1-0.1-0.2
			C228.1,196.9,228.1,196.9,228.1,196.8z"/>
		<path class="st9" d="M228.2,197.1c0,0.1,0,0.2,0,0.3c-0.1,0-0.2,0-0.3,0c0-0.1,0-0.2,0-0.3C228.1,197.1,228.2,197.1,228.2,197.1z"
			/>
		<path class="st8" d="M259.5,255.9c2.3,1.2,4.2,2.8,5.9,4.8c0.4,0.5,0.7,0.9,1.1,1.4c1,1.4,1,2-0.4,2.9c-3.8,2.4-7.1,5.6-11,8
			c0-0.8,0.4-1.4,0.8-1.9c2.7-3.2,4-6.7,3.3-10.9C259,258.7,259.5,257.3,259.5,255.9z"/>
		<path class="st1" d="M229.5,249c-0.5-0.7-1.4-0.4-2.1-0.7c1.2-1.3,2.8-0.9,4.2-0.9c2.2,0,4.2,0.4,5.6,2.4c0.4,0.7,1,0.4,1.5,0.2
			c2.3-1.3,4.7-1.2,7.2-1.1c1,0,1.9,0.6,2.8,0.9c0.2,0.1,0.3,0.3,0.2,0.5c-3.5,0.2-6.8,1.2-9.9,2.9c-0.8,0.4-1.4,0.5-2.2,0.1
			c-1.2-0.5-2.4-1.1-3.3-2C232.3,250.1,230.9,249.6,229.5,249z"/>
		<path class="st6" d="M247,257.2c-0.2,0.2-0.4,0.5-0.6,0.7c-3.8,2.6-8,4.2-12.7,3.3c-1.8-0.4-3.6-1.1-5-2.6
			c0.4-0.1,0.8,0.1,1.1,0.3c2.4,1,5,1.3,7.6,1.1c2.2-0.2,4.4-0.4,6.4-1.4c0.8-0.4,1.7-0.9,2-2C246.5,256.2,246.8,256.5,247,257.2z"
			/>
		<path class="st8" d="M247,257.2c-0.2-0.7-0.6-1-1.3-0.6c-0.4,0-0.7,0.4-1,0.6c-1.5,1-3.2,1.6-5,1.5c0.6-0.5,1.2-0.9,2-1.2
			c1.6-0.5,3-1.5,4.3-2.5c0.6-0.4,0.9-1.1,1.1-1.8c0.1-0.4,0.3-0.8,0.8-0.9c1.8-0.3,2.1,0,1.5,1.8
			C249.1,255.4,248.2,256.5,247,257.2z"/>
		<path class="st9" d="M239.7,258.7c1.9,0.1,3.5-0.5,5-1.5c0.3-0.2,0.6-0.6,1-0.6c-0.2,1.1-1.1,1.5-2,2c-2,1-4.2,1.2-6.4,1.4
			c-2.6,0.2-5.2-0.1-7.6-1.1c-0.3-0.1-0.7-0.4-1.1-0.3c-0.6-0.7-1.7-0.6-2.4-1.4c0.9-0.1,1.6,0.5,2.4,0.4c1.9,0.9,3.9,1.7,6.1,1.6
			c1.3,0.1,2.6,0,4-0.2c0.2,0.1,0.4,0.1,0.5-0.1C239.4,258.8,239.6,258.7,239.7,258.7z"/>
		<path class="st14" d="M234.8,259.1c-2.2,0.1-4.2-0.7-6.1-1.6c0.4-0.4,0.8-0.2,1.2-0.1C231.6,258,233.2,258.6,234.8,259.1z"/>
		<path class="st8" d="M239.3,258.8c-0.1,0.2-0.3,0.2-0.5,0.1C238.9,258.6,239,258.5,239.3,258.8z"/>
		<path class="st8" d="M270.3,247.3c0-0.8-0.3-1.5-0.7-2.3c-1.1-2.4-2.2-4.8-2.7-7.4c-0.4-1.7-1.5-2.8-2.5-4.1
			c-2.7-3.1-4.9-6.5-6.9-10c-0.2-0.4-0.5-0.9-0.3-1.4c0.2,0.2,0.4,0.5,0.6,0.7c2.3,3.7,5.1,6.9,8.2,10c0.3,0.3,0.5,0.5,0.9,0.4
			c0.4,2.1,1.5,3.7,3.1,5.1c1.1,0.9,2.1,1.9,3.1,2.9c0.8,0.8,1.7,1.4,2.9,1.5c1.2,0.1,2.3,0.5,3.5,0.2c0.7-0.2,1.5-0.3,0.8-1.4
			c-0.2-0.2-0.2-0.6,0.2-0.8c1.5,0.7,1.6,1.3,1,2.7c-0.9,2.1-1.2,4.3-1.5,6.5c-0.4,2.2-1,4.3-2.3,6.2c-0.2,0.2-0.3,0.5-0.6,0.5
			C274.6,253.6,272.4,250.5,270.3,247.3z"/>
		<path class="st8" d="M290.3,205.5c1.6,2.7,3.1,5.5,3.9,8.5c0.2,0.9-0.3,1.6-0.4,2.4c-0.1,1.3-0.2,2.7-0.4,4
			c-0.4,2.2-1.5,4.1-2.5,6c-0.1,0.2-0.2,0.4-0.4,0.4c-1.1,0.4-1.8,1.3-2.7,2c-0.2-1.3,0.4-2.3,1.1-3.2c1.7-2,1.9-4.3,1.6-6.7
			c-0.3-2.1-0.7-4.2-0.6-6.4c0.3-0.4,0.7-0.5,1.1-0.8c0.4-0.2,1.1-0.2,1-0.9c-0.1-0.7-0.6-0.9-1.3-1c-1.7-1.2-2.6-1.2-4.3,0.2
			c-0.2,0-0.5,0-0.7,0c0.3-0.7,1-0.9,1.6-1.4c0.3-0.3,0.6-0.5,0.5-1C287.8,206.4,288.7,205.5,290.3,205.5z"/>
		<path class="st8" d="M254.4,216.3c-0.1-1.3-0.9-2.4-0.7-3.8c0.1-1.1,0.1-2.3,0.6-3.3c1,1,2,2.1,3.6,2c0.1,0,0.2,0.1,0.3,0.1
			c0.4,1.3,1.5,1.1,2.4,1.2c0.2,0.9,1.1,1.3,1.6,2c0.4,0.5,1.1,0.8,1.3,1.5c-1.7,0.2-3.3-0.1-4.8-0.7c-0.7-0.6-1.5-0.8-2.2-1.1
			c0.7,1,0.7,1,1.8,1.2c0.1,0.1,0.1,0.1,0,0.2c-0.7,1.4-0.4,2.9-0.1,4.4c0.2,1.4,0.7,2.7,1,4c-0.7-0.2-0.7-1-1.2-1.4
			c-1-1.5-2.1-3.1-3.1-4.6c0,0,0,0,0,0c0-0.5,0-0.9-0.5-1.2c0,0,0,0,0,0C254.4,216.6,254.4,216.5,254.4,216.3z"/>
		<path class="st9" d="M258.2,211.3c-0.1,0-0.2-0.1-0.3-0.1c-1.6,0.1-2.6-1-3.6-2c-0.1-0.3-0.3-0.6-0.4-0.9c0-0.1,0.1-0.2,0.1-0.4
			c1.1-0.5,2-1.3,3.2-1.6c1.2-0.8,2.5-0.2,3.8-0.5c3,0.8,5.7,2,8.4,3.4c0.1,0.1,0.3,0.1,0.4,0.1c0.1,0,0.3,0,0.4,0
			c0.2,0.2,0.4,0.3,0.6,0.5c-0.5,0.7-1-0.1-1.5,0c-0.4-0.3-0.8-0.4-1.2-0.3c-1.7-1-3.6-1.6-5.4-2.3c-0.8-0.3-0.6,0.2-0.6,0.7
			c-0.2,1.6-0.9,2.1-2.8,2.2c-0.6,0-1-0.2-1.4-0.5c-0.9-0.6-0.9-1.5-0.9-2.4c-0.6,0.1-0.9,0.4-1.4,0.6c-0.9,0.5-0.8,0.9-0.1,1.5
			c1,0.9,2.1,0.7,3.3,1c2.7,0.6,5.3,0.2,7.9-0.6c0,0.1,0,0.3,0,0.4c-1.6,1-3.4,1.3-5.3,1.2C260.3,211.4,259.3,211.1,258.2,211.3z
			 M260.3,207.5c0.2-1.1-0.8-0.9-1.4-0.9c-0.4,0-1.2-0.2-1.1,0.6c0,0.8,0.5,1.5,1.4,1.5C259.9,208.6,260.4,208.4,260.3,207.5z"/>
		<path class="st6" d="M290.8,210.1c0.6,0.1,1.2,0.2,1.3,1c0.1,0.8-0.6,0.7-1,0.9c-0.4,0.2-0.9,0.4-1.1,0.8c-1.7,1-3.4,2-5.1,3
			c-0.4,0.2-0.8,0.6-1.4,0.4c0.9-1.3,1.7-2.7,2.6-4c1.1-1.7,2.4-2.7,4.6-2C290.6,210.3,290.7,210.2,290.8,210.1z"/>
		<path class="st6" d="M286.4,223.5c-1.6,0.2-1.6,0.2-1.5,1.8c0,1-0.3,2-0.6,2.9c-0.1,0.4-0.3,0.9-0.9,0.8c0-0.2,0-0.3,0.1-0.5
			c0.5-1.4,0.8-2.8-0.8-3.8c-0.6-0.4-0.1-1,0.3-1.1c1.2-0.5,1.2-1.5,1-2.5c-0.1-0.5-0.1-1.1-0.1-1.7c1,0.6,1.1,1.7,1.3,3
			c1.2-2,2-3.8,2.1-6c0-0.4,0-0.8,0.4-0.9c0.3-0.1,0.5,0.2,0.6,0.5c0,0.3,0,0.6-0.1,0.9C288,219.2,287.1,221.3,286.4,223.5z"/>
		<path class="st8" d="M260.9,205.9c-1.2,0.2-2.6-0.4-3.8,0.5c-0.4-0.7,0.4-0.7,0.7-0.9c1.4-0.9,2.6-2,4.1-2.8
			c0.3-0.2,0.7-0.5,0.7-0.9c1.5-0.3,3-0.2,4.3,0.7c-1.4,1.2-3.1,1.9-4.7,2.6C261.7,205.3,261.2,205.4,260.9,205.9z"/>
		<path class="st11" d="M283.9,219.4c0,0.6,0,1.1,0.1,1.7c0.1,1,0.2,2-1,2.5c-0.4,0.2-0.9,0.7-0.3,1.1c1.6,1.1,1.3,2.4,0.8,3.8
			c-0.1,0.1-0.1,0.3-0.1,0.5c-1.2,1.4-2.9,2.5-2.2,4.8c0,0.2,0,0.3-0.2,0.4c-0.2,0.1-0.4-0.1-0.5-0.3c-0.4-0.7-0.3-1.4-0.1-2.1
			c0.2-0.7,0.6-1.3,1.1-1.8c0.6-0.6,1-1.4,1.2-2.3c0.3-1.2,0.2-2-0.8-2.8c-0.9-0.8-0.8-1.4,0.4-1.8c0.9-0.3,1.1-0.9,0.9-1.6
			c-0.2-1-0.2-2-0.3-3.1C283.6,218.4,283.6,219.1,283.9,219.4z"/>
		<path class="st8" d="M287.8,229.1c-0.6,1.5-0.5,3-0.1,4.5c0.5,2.3-1.8,4.8-4.3,4.7c0.1-0.2,0.1-0.4,0.3-0.5c1.9-2,2.5-4.5,3-7
			C286.8,230,287,229.3,287.8,229.1z"/>
		<path class="st8" d="M273,225.4c0.7,0.8,0.8,1.9,1.1,2.8c0.9,2.3,2.2,4.3,3.8,6.2c0.3,0.3,0.8,0.7,0.6,1.1
			c-0.2,0.5-0.8,0.1-1.2,0.2c-0.5-0.4-0.9-0.9-1.2-1.4C274.2,231.7,273.1,228.7,273,225.4z"/>
		<path class="st6" d="M268.1,209.6c0.5-0.1,0.9,0,1.2,0.3c-0.7,1.5-2.2,1.7-3.6,2c-1.7,0.3-3.4,0.4-5.1,0.6
			c-0.9-0.1-2.1,0.1-2.4-1.2c1-0.2,2,0.1,3.1,0.2c1.9,0.1,3.7-0.2,5.3-1.2C267.2,210.2,267.8,210.1,268.1,209.6L268.1,209.6z"/>
		<path class="st11" d="M258.7,215.3c1.5,0.6,3.1,0.9,4.8,0.7c1.8,0.3,3.4-0.3,5-1.2c0.4-0.2,0.8-0.4,1.2-0.6c0.3-0.1,0.7-0.3,0.9,0
			c0.2,0.4-0.3,0.5-0.4,0.7c-0.3,0.1-0.5,0.1-0.8,0.3c-2.2,1.3-4.5,1.7-7,1.5c-1.1-0.1-2.1-0.4-3.2-0.5c-0.3-0.3-0.6-0.5-0.8-0.8
			c0-0.1,0-0.1,0-0.2C258.4,215.3,258.6,215.3,258.7,215.3z"/>
		<path class="st11" d="M258,222.6c0.5,0.4,0.5,1.2,1.2,1.4c1.6,2.6,3.7,4.8,5.7,7c0.7,0.7,1.3,1.5,1.9,2.3
			c-0.4,0.1-0.7-0.2-0.9-0.4c-3.1-3.1-5.9-6.3-8.2-10C257.8,222.8,257.9,222.7,258,222.6z"/>
		<path class="st6" d="M285.9,210.4c0.2,0,0.5,0,0.7,0c-0.9,1.4-1.9,2.8-2.8,4.2c-0.7,1-1.5,1.7-2.8,1.8c0.2-1.5,0.8-2.6,2.2-3.3
			C284.3,212.4,284.8,211.1,285.9,210.4z"/>
		<path class="st11" d="M281,216.3c1.3-0.1,2.1-0.8,2.8-1.8c0.9-1.4,1.8-2.8,2.8-4.2c1.7-1.4,2.6-1.4,4.3-0.2
			c-0.1,0.1-0.2,0.2-0.3,0.1c-2.1-0.8-3.5,0.3-4.6,2c-0.8,1.3-1.7,2.7-2.6,4c-0.7,0.2-1.4,0.6-2.1,0.6
			C280.9,216.8,280.6,216.7,281,216.3z"/>
		<path class="st6" d="M259.2,216.4c1.1,0.1,2.1,0.4,3.2,0.5c2.5,0.1,4.8-0.3,7-1.5c0.2-0.1,0.5-0.2,0.8-0.3
			c-0.9,1.4-2.4,1.8-3.8,2.3c-2.1,0.7-4.2,0.6-6.2-0.2C259.8,217,259.3,216.9,259.2,216.4z"/>
		<path class="st4" d="M273,225.4c0.1,3.3,1.2,6.3,3.1,8.9c0.4,0.5,0.7,1.1,1.2,1.4c0.6,0.5,1.2,1.1,1.9,1.8
			c-3.2-0.6-6.8-7.5-6.8-12.5c0.1,0,0.1,0,0.2-0.1C272.8,225.1,272.9,225.3,273,225.4z"/>
		<path class="st8" d="M276.5,209.6c0,0.8-0.7,0.7-1.3,0.8c0.5,0.5,1.1,0.5,1.6,0.6c0.6,0.1,1.3,0.2,1.3,1c-0.1,0.8-0.8,0.7-1.4,0.7
			c-0.1,0-0.2,0-0.4,0c-0.3-1.1-1.9-1.9-3.6-1.9c0-0.2,0-0.4-0.1-0.6C273.9,210.1,275.2,209.9,276.5,209.6z"/>
		<path class="st8" d="M274.2,213.8c0.3-0.1,0.8,0,0.8-0.6c0.4,0,0.4,0.7,1,0.5c0,0,0,0,0,0c-0.2,0.7,0.5,0.8,0.7,1.3
			c0.3,2-0.1,2.2-2.4,1.4C274.7,215.5,274.7,214.6,274.2,213.8z"/>
		<path class="st11" d="M286.4,223.5c0.8-2.1,1.6-4.2,1.8-6.5c0-0.3,0.1-0.6,0.1-0.9c0.5-0.3,0.8-0.2,0.7,0.4
			c-0.3,2.4-0.7,4.7-1.9,6.8C286.9,223.5,286.6,223.5,286.4,223.5z"/>
		<path class="st4" d="M274.2,213.8c0.4,0.8,0.4,1.7,0.1,2.6c-1.3-1.1-2.1-2.5-2.6-4.3C272.7,212.7,273.5,213.2,274.2,213.8z"/>
		<path class="st8" d="M273.2,206.7c0.6-0.1,1.1,0.4,1,0.7c-0.2,0.9,0.5,0.6,0.8,0.9c-0.2,0.5-0.9,0.4-1,1c-0.5,0.4-1.2,0.2-1.8,0.4
			c-0.1-0.5-0.2-1-0.2-1.5C272.3,207.6,273.2,207.5,273.2,206.7z"/>
		<path class="st6" d="M272.7,210.8c1.8,0,3.3,0.8,3.6,1.9c-0.1,0.2-0.2,0.5-0.3,0.7c-0.3-0.1-0.4-0.5-0.6-0.7
			c-0.7-0.4-1.1-1.5-2.3-1C272.7,211.6,272.4,211.3,272.7,210.8z"/>
		<path class="st4" d="M266.9,202.5c-1.3-0.9-2.8-1-4.3-0.7c-0.3-0.2-0.6,0-0.9-0.3c1.2-0.8,2.5-0.1,3.7-0.2
			c0.9,0.4,1.9,0.4,2.6,1.2C267.7,202.4,267.3,202.4,266.9,202.5z"/>
		<path class="st6" d="M274,209.3c0.1-0.6,0.8-0.5,1-1c0.3-0.1,0.5-0.1,0.8-0.2c0.5-0.2,1.1-0.5,1.4,0.1c0.3,0.4-0.2,0.8-0.5,1.1
			C275.8,208.7,274.9,209.6,274,209.3z"/>
		<path class="st4" d="M273.2,206.7c-0.1,0.8-1,0.9-1.3,1.5c-0.7,0.2-1.1,1-1.8,1.2c-0.1,0-0.3,0-0.4,0c0.7-0.8,1.5-1.4,2.1-2.2
			C272.2,206.7,272.7,206.6,273.2,206.7z"/>
		<path class="st4" d="M274,209.3c0.9,0.3,1.8-0.7,2.7,0c-0.1,0.1-0.2,0.2-0.2,0.2c-1.3,0.3-2.6,0.5-3.9,0.6
			c-0.2-0.1-0.5-0.1-0.4-0.5c0,0,0,0,0,0C272.8,209.5,273.5,209.7,274,209.3z"/>
		<path class="st6" d="M272.2,209.8C272.2,209.8,272.2,209.7,272.2,209.8c-0.5,0-0.9,0.1-1.4,0.1c-0.2-0.2-0.4-0.3-0.6-0.5
			c0.7-0.2,1.1-1,1.8-1.2C272.1,208.7,272.1,209.2,272.2,209.8z"/>
		<path class="st4" d="M273.1,211.8c1.1-0.6,1.5,0.6,2.3,1c0.3,0.1,0.3,0.6,0.6,0.7c0,0.1,0,0.2,0,0.2c-0.5,0.3-0.6-0.4-1-0.5
			C274.4,212.7,273.7,212.3,273.1,211.8z"/>
		<path class="st4" d="M279.8,215.5c-0.3-1-0.1-1.5,0.5-2.2C280.4,214.1,280.2,214.6,279.8,215.5z"/>
		<path class="st4" d="M276.7,214.9c-0.2-0.4-0.9-0.6-0.7-1.3C276.8,213.8,277,214.2,276.7,214.9z"/>
		<path class="st8" d="M272.7,224.9c0,0.1-0.1,0.1-0.2,0.1c0-0.1,0-0.1,0-0.2C272.5,224.8,272.6,224.9,272.7,224.9z"/>
		<path class="st9" d="M224,285.2c0.2,0,0.4,0,0.6,0c-0.3,0.5-0.5,1.2-1.1,1.5C223,286,223.8,285.7,224,285.2z"/>
		<path class="st4" d="M270.3,247.3c2.1,3.2,4.3,6.4,6.7,9.4c-0.1,0.1-0.2,0.2-0.2,0.2c-1.9-1.9-3.3-4.2-4.9-6.3
			c-0.3-0.4-0.6-0.8-0.9-1.1c-0.3-0.5-0.7-1-1-1.4C269.8,247.7,269.6,247.3,270.3,247.3z"/>
		<path class="st9" d="M254.9,233.8c0.3-0.2,0.6-0.4,0.9-0.6c0.1,0.1,0.2,0.3,0.4,0.4c-0.2,0.4-0.6,0.6-1,0.8c-0.1,0-0.2,0-0.3,0
			C254.9,234.2,254.9,234,254.9,233.8z"/>
		<path class="st7" d="M256.1,233.6c-0.1-0.1-0.2-0.3-0.4-0.4c0.1-0.3,0.2-0.6,0.3-0.9c0.3,0,0.4,0.1,0.4,0.4c0,0.3-0.1,0.5-0.1,0.8
			C256.2,233.5,256.2,233.6,256.1,233.6z"/>
		<path class="st11" d="M252.2,223.5c0-0.9,0-1.7-0.1-2.6c0.3-0.4,0.2-0.8,0.3-1.2c0-0.2,0.1-0.4,0.4-0.4c0.2,0,0.3,0.2,0.3,0.4
			c-0.3,1.2-0.2,2.4-0.2,3.6C252.9,223.8,252.5,223.6,252.2,223.5z"/>
		<path class="st11" d="M253.9,207.9c0,0.1-0.1,0.2-0.1,0.4c-0.4-0.2-0.7-0.6-0.6-1.1c0.2-1.3,0.7-2.5,1.2-3.7
			C254.8,205,253.6,206.4,253.9,207.9z"/>
		<path class="st4" d="M258,222.6c-0.1,0.1-0.2,0.2-0.3,0.3c-0.2-0.2-0.4-0.5-0.6-0.7c0,0,0,0,0,0c-0.2-0.2-0.3-0.4-0.5-0.7
			c-0.1-0.8-0.8-1.2-1.2-1.9c-0.3-0.5-0.6-1-0.5-1.6C255.9,219.5,257,221,258,222.6z"/>
		<path class="st4" d="M254.4,216.8c0.5,0.3,0.5,0.8,0.5,1.2C254.3,217.8,254.4,217.2,254.4,216.8z"/>
		<path class="st8" d="M256.6,221.5c0.2,0.2,0.3,0.4,0.5,0.7C256.7,222.1,256.5,221.8,256.6,221.5z"/>
		<path class="st4" d="M254.4,216.3c0,0.2,0,0.3,0,0.5C254.2,216.7,254.2,216.5,254.4,216.3z"/>
		<path class="st11" d="M241.5,305.2c0.1,0.2,0.1,0.3,0.2,0.5c-0.2,0-0.3,0.1-0.5,0.1C241.1,305.6,241.3,305.4,241.5,305.2z"/>
		<path class="st7" d="M254.9,233.8c0,0.2,0,0.4,0,0.6c-0.7,0.3-1.5,0.4-2.3,0.3c-0.4,0-0.9,0-0.6-0.7
			C252.9,234.1,253.9,234.1,254.9,233.8z"/>
		<path class="st7" d="M250.3,233.9c0.1-0.1,0.3-0.3,0.4-0.4c0.3,0.2,0.7,0.3,1,0.5C251.3,234.7,251.1,234.7,250.3,233.9z"/>
		<path class="st8" d="M281.5,179.4c-0.5-0.4-0.9-0.8-1.4-1.2c-0.1-0.1-0.2-0.1-0.3-0.2c-0.1-0.1-0.2-0.2-0.3-0.3
			c0,0.1-0.1,0.1-0.1,0.2c0.1,0.2,0.2,0.2,0.4,0.2c0,0.2,0,0.2,0.2,0.3c0,0.7,0.6,1,1,1.4c0.3,0.3,0.5,0.7,0.6,1.1
			c-0.5,0.8-0.2,1.6-0.3,2.4c-0.1,0.7,0.2,1.5-0.2,2.2c-0.5-0.8-1.1-1.6-1.6-2.5c-0.2-0.3-0.3-0.8-0.8-0.7c0,0,0,0,0,0
			c0.1-0.3,0-0.4-0.3-0.2c-1.9-1.7-2.2-3.6-1-5.6c1.2-2,2.1-4.2,3-6.4c0.6,0.5,0.6,1.3,0.9,2c0.2,0.7,0.3,1.5,0.6,2.2
			C282.8,176,282.1,177.7,281.5,179.4z"/>
		<path class="st8" d="M282.1,190.6c-0.7,0.3-0.2,1.3-0.8,1.6c-0.6-1-1.1-2.1-1.7-3.1c0.5-0.8-0.4-1.6-0.1-2.4
			C280.7,187.9,281.5,189.2,282.1,190.6z"/>
		<path class="st8" d="M279.2,183.7c1,1.1,1.7,2.4,2.3,3.8c-0.1,0.1-0.3,0.1-0.4,0.2c-0.6-0.9-1.3-1.8-1.9-2.6
			c-0.2-0.2-0.3-0.5-0.5-0.7C279,184.2,278.7,183.7,279.2,183.7z"/>
		<path class="st6" d="M278.7,184.4c0.2,0.2,0.3,0.5,0.5,0.7c-0.1,0.1-0.2,0.2-0.3,0.3c-0.5-0.5-0.8-1.1-1.2-1.9
			C278.3,183.6,278.4,184.1,278.7,184.4z"/>
		<path class="st4" d="M278.3,182c0.3-0.1,0.4,0,0.3,0.2C278.4,182.3,278.4,182.1,278.3,182z"/>
		<path class="st11" d="M240.7,205.2c0,0.8,0.1,1.7,0,2.5c0,0.6-0.2,1.1-0.8,1.3c0-0.2,0-0.4,0-0.6c0.4-0.6,0.2-1.2,0.1-1.8
			C240,206,239.9,205.3,240.7,205.2z"/>
		<path class="st9" d="M231.8,197.8c0-0.3,0.2-0.3,0.5-0.2C232.3,198,232.1,198.1,231.8,197.8z"/>
		<path class="st9" d="M232.5,197.3c0.1,0.1,0.2,0.2,0.3,0.3c-0.2,0.1-0.4,0.2-0.5-0.1C232.2,197.3,232.4,197.4,232.5,197.3z"/>
		<path class="st8" d="M238.7,200.8c-1-1-2-1.9-2.7-3.1c0.8-0.3,1.1,0.3,1.6,0.7c0.6,0.6,1.2,1.4,1.4,2.3
			C238.9,200.7,238.8,200.8,238.7,200.8z"/>
		<path class="st14" d="M238.7,200.8c0.1-0.1,0.2-0.1,0.4-0.2c0.2,0,0.5,0,0.7,0.1c0,0.4,0,0.8,0,1.4
			C239.1,201.8,238.9,201.3,238.7,200.8z"/>
		<path class="st14" d="M281.1,187.7c0.1-0.1,0.3-0.1,0.4-0.2c0.6,0.5,0.8,1.2,0.8,2C281.9,188.9,281.5,188.3,281.1,187.7z"/>
		<path class="st8" d="M238.6,210.1c-0.9,2.2-3.1,2.9-4.9,3.7c-1.4,0.6-3.3,0.6-5,0.1c1.5-0.7,3.2-0.7,4.6-1.7
			c1.2-0.7,2.4-1.3,3.6-2c0.3-0.1,0.6-0.3,0.6-0.7C238.3,209.1,238.6,209.3,238.6,210.1z"/>
		<path class="st14" d="M229,214.8c0.9,0.1,1.9,0.1,3,0.2c-0.7,0.4-1.2,0.7-1.7,1c-0.3-0.2-0.6-0.1-0.9-0.2
			C228.7,215.7,228.6,215.4,229,214.8z"/>
		<path class="st8" d="M231,205.1c-0.1,0-0.2,0.1-0.3,0.1c0-0.1,0.1-0.2,0.1-0.3C230.8,205,230.9,205.1,231,205.1z"/>
		<path class="st13" d="M255.3,201.6c-0.4-1.4-0.4-2.8-0.5-4.3c-0.1-0.4,0.2-0.7,0.5-0.9c1.8-1.4,4-2,6.2-2.7
			c0.4-0.1,0.7-0.3,1.1-0.4c0.1,0,0.3,0,0.4,0c1.9-1.2,3.8-0.4,5.6,0.3c1.8,0.7,3.4,1.7,4.4,3.4c0.2,0.3,0.5,0.6,0.8,0.9
			c-0.4,0.2-0.9,0.3-1.4,0.2c-1.4-0.3-2.9-0.5-4.3-1c-2.9-1-5.4-0.3-7.7,1.4C258.7,199.7,257.2,200.9,255.3,201.6z"/>
		<path class="st6" d="M255.3,201.6c1.9-0.7,3.4-1.9,5-3.1c2.4-1.8,4.8-2.5,7.7-1.4c1.4,0.5,2.9,0.6,4.3,1c0.5,0.1,0.9,0,1.4-0.2
			c0.9,0.7,0.9,2,1.8,2.8c0.1,0.1,0.1,0.3,0,0.4c-0.2,0.2-0.4,0.1-0.6,0c-1.2-0.6-2.4-1.3-3.6-1.8c-1.7-0.8-3.4-1.3-5.3-0.9
			c-3.3,0.7-6.4,1.7-9.1,3.8C255.8,202.8,255.5,202.7,255.3,201.6z"/>
		<polygon class="st6" points="276,201.6 276.1,201.5 276.1,201.6 		"/>
		<path class="st8" d="M254.9,177.9c1.6,0.3,3.3-0.3,4.9,0.6c-1.9,0-3.7,0-5.7,0C254.2,178,254.6,178,254.9,177.9z"/>
		<path class="st8" d="M253.5,178.4C253.5,178.5,253.6,178.5,253.5,178.4c0,0.1,0,0.1-0.1,0.2c0,0-0.1,0-0.1-0.1
			C253.4,178.5,253.4,178.5,253.5,178.4z"/>
		<path class="st14" d="M258.7,215.3c-0.2,0-0.3,0-0.5,0c-1.1-0.2-1.1-0.2-1.8-1.2C257.3,214.5,258.1,214.7,258.7,215.3z"/>
		<path class="st13" d="M266.6,209.8c-2.6,0.8-5.1,1.1-7.9,0.6c-1.1-0.2-2.3-0.1-3.3-1c-0.7-0.7-0.8-1.1,0.1-1.5
			c0.4-0.2,0.8-0.6,1.4-0.6c0,0.9,0.1,1.8,0.9,2.4c0.4,0.3,0.8,0.6,1.4,0.5c2-0.1,2.6-0.6,2.8-2.2c1.5,0.5,3,1.1,4.5,1.6
			C266.6,209.7,266.6,209.7,266.6,209.8z"/>
		<path class="st13" d="M260.3,207.5c0.1,0.9-0.5,1.1-1.1,1.1c-0.9,0-1.3-0.7-1.4-1.5c0-0.8,0.7-0.6,1.1-0.6
			C259.6,206.6,260.6,206.3,260.3,207.5z"/>
		<path class="st6" d="M266.6,209.6c-1.5-0.5-3-1.1-4.5-1.6c-0.1-0.4-0.2-1,0.6-0.7c1.8,0.7,3.7,1.3,5.4,2.3c0,0,0,0,0,0
			C267.6,209.6,267.1,209.6,266.6,209.6z"/>
		<path class="st11" d="M266.6,209.6c0.5,0,1,0,1.5,0c-0.3,0.5-0.9,0.6-1.5,0.7c0-0.1,0-0.3,0-0.4
			C266.6,209.7,266.6,209.7,266.6,209.6z"/>
		<path class="st4" d="M279.9,177.9c-0.2,0-0.3,0-0.4-0.2c0,0,0-0.1,0.1-0.2C279.6,177.7,279.7,177.8,279.9,177.9L279.9,177.9z"/>
		<path class="st4" d="M279.8,177.9c0.1,0.1,0.2,0.1,0.3,0.2c0,0-0.1,0.1-0.1,0.1C279.9,178.2,279.8,178.1,279.8,177.9
			C279.9,177.9,279.8,177.9,279.8,177.9z"/>
	</g>
</g>
</svg>
